# This file uses centimeters as units for non-parametric coordinates.

mtllib mesadepreparacion.mtl
g default
v 0.979326 0.002250 -0.625887
v 0.979326 0.903416 -0.625887
v -0.979202 0.002250 -0.625887
v -0.979202 0.903416 -0.625887
v -0.979202 0.002250 -0.685495
v -0.979202 0.903416 -0.685495
v 0.979326 0.002250 -0.685495
v 0.979326 0.903416 -0.685495
v 0.898152 0.541681 0.576253
v 0.898152 0.601546 0.576253
v -0.898028 0.541681 0.576253
v -0.898028 0.601546 0.576253
v -0.898028 0.541681 -0.629285
v -0.898028 0.601546 -0.629285
v 0.898152 0.541681 -0.629285
v 0.898152 0.601546 -0.629285
v -0.977226 0.004921 0.641448
v -0.901341 0.004921 0.641448
v -0.977226 0.904921 0.641448
v -0.901341 0.904921 0.641448
v -0.977226 0.904921 -0.628104
v -0.901341 0.904921 -0.628104
v -0.977226 0.004921 -0.628104
v -0.901341 0.004921 -0.628104
v 0.897630 0.004921 0.641448
v 0.973515 0.004921 0.641448
v 0.897630 0.904921 0.641448
v 0.973515 0.904921 0.641448
v 0.897630 0.904921 -0.628104
v 0.973515 0.904921 -0.628104
v 0.897630 0.004921 -0.628104
v 0.973515 0.004921 -0.628104
v 0.898152 0.167270 0.576253
v 0.898152 0.227134 0.576253
v -0.898028 0.167270 0.576253
v -0.898028 0.227134 0.576253
v -0.898028 0.167270 -0.629285
v -0.898028 0.227134 -0.629285
v 0.898152 0.167270 -0.629285
v 0.898152 0.227134 -0.629285
v 1.042114 0.903345 0.711216
v 1.042114 0.979230 0.711216
v -1.036533 0.903345 0.711216
v -1.036533 0.979230 0.711216
v -1.036533 0.903345 -0.683520
v -1.036533 0.979230 -0.683520
v 1.042114 0.903345 -0.683520
v 1.042114 0.979230 -0.683520
vt 0.375000 0.000000
vt 0.625000 0.000000
vt 0.375000 0.250000
vt 0.625000 0.250000
vt 0.840778 0.127482
vt 0.840778 0.845525
vt 0.796853 0.126011
vt 0.789537 0.630899
vt 0.187430 0.121571
vt 0.180114 0.626459
vt 0.829464 0.119848
vt 0.829464 0.881018
vt 0.795214 0.119848
vt 0.795214 0.881018
vt 0.875000 0.000000
vt 0.875000 0.250000
vt 0.125000 0.000000
vt 0.125000 0.250000
vt 0.255618 0.925069
vt 0.257317 0.472242
vt 0.472683 0.922758
vt 0.474382 0.469931
vt 0.375000 0.250000
vt 0.625000 0.250000
vt 0.375000 0.500000
vt 0.625000 0.500000
vt 0.375000 0.750000
vt 0.625000 0.750000
vt 0.375000 1.000000
vt 0.625000 1.000000
vt 0.625000 0.000000
vt 0.875000 0.000000
vt 0.625000 0.250000
vt 0.875000 0.250000
vt 0.125000 0.000000
vt 0.375000 0.000000
vt 0.125000 0.250000
vt 0.375000 0.250000
vt 0.063504 0.210705
vt 0.166496 0.210705
vt 0.063504 0.604295
vt 0.166496 0.604295
vt 0.375000 0.250000
vt 0.625000 0.250000
vt 0.375000 0.500000
vt 0.625000 0.500000
vt 0.375000 0.750000
vt 0.625000 0.750000
vt 0.375000 1.000000
vt 0.625000 1.000000
vt 0.625000 0.000000
vt 0.875000 0.000000
vt 0.625000 0.250000
vt 0.875000 0.250000
vt 0.873087 0.127482
vt 0.873087 0.845525
vt 0.841979 0.129610
vt 0.153845 0.129610
vt 0.078098 0.262500
vt 0.146902 0.262500
vt 0.078098 0.512500
vt 0.146902 0.512500
vt 0.375000 0.250000
vt 0.625000 0.250000
vt 0.375000 0.500000
vt 0.625000 0.500000
vt 0.375000 0.750000
vt 0.625000 0.750000
vt 0.375000 1.000000
vt 0.625000 1.000000
vt 0.067023 0.122104
vt 0.796488 0.122104
vt 0.067023 0.882289
vt 0.796488 0.882289
vt 0.125000 0.000000
vt 0.375000 0.000000
vt 0.125000 0.250000
vt 0.375000 0.250000
vt 0.094573 0.272500
vt 0.245427 0.272500
vt 0.094573 0.522500
vt 0.245427 0.522500
vt 0.375000 0.250000
vt 0.625000 0.250000
vt 0.375000 0.500000
vt 0.625000 0.500000
vt 0.375000 0.750000
vt 0.625000 0.750000
vt 0.375000 1.000000
vt 0.625000 1.000000
vt 0.625000 0.000000
vt 0.875000 0.000000
vt 0.625000 0.250000
vt 0.875000 0.250000
vt 0.125000 0.000000
vt 0.375000 0.000000
vt 0.125000 0.250000
vt 0.375000 0.250000
vt 0.375000 0.000000
vt 0.625000 0.000000
vt 0.375000 0.250000
vt 0.625000 0.250000
vt 0.375000 0.500000
vt 0.625000 0.500000
vt 0.375000 0.750000
vt 0.625000 0.750000
vt 0.375000 1.000000
vt 0.625000 1.000000
vt 1.000000 -0.000000
vt 1.000000 1.000000
vt -0.000000 -0.000000
vt -0.000000 1.000000
vt 0.125000 0.000000
vt 0.125000 0.250000
vt 0.841979 0.846724
vt 0.153845 0.846724
vn 0.000000 0.000000 1.000000
vn 0.000000 0.000000 1.000000
vn 0.000000 0.000000 1.000000
vn 0.000000 0.000000 1.000000
vn -1.000000 0.000000 0.000000
vn -1.000000 0.000000 0.000000
vn -1.000000 0.000000 0.000000
vn -1.000000 0.000000 0.000000
vn 0.000000 0.000000 -1.000000
vn 0.000000 0.000000 -1.000000
vn 0.000000 0.000000 -1.000000
vn 0.000000 0.000000 -1.000000
vn 1.000000 0.000000 0.000000
vn 1.000000 0.000000 0.000000
vn 1.000000 0.000000 0.000000
vn 1.000000 0.000000 0.000000
vn 0.000000 1.000000 0.000000
vn 0.000000 1.000000 0.000000
vn 0.000000 1.000000 0.000000
vn 0.000000 1.000000 0.000000
vn 0.000000 -1.000000 0.000000
vn 0.000000 -1.000000 0.000000
vn 0.000000 -1.000000 0.000000
vn 0.000000 -1.000000 0.000000
vn 0.000000 0.000000 1.000000
vn 0.000000 0.000000 1.000000
vn 0.000000 0.000000 1.000000
vn 0.000000 0.000000 1.000000
vn -1.000000 0.000000 0.000000
vn -1.000000 0.000000 0.000000
vn -1.000000 0.000000 0.000000
vn -1.000000 0.000000 0.000000
vn 0.000000 0.000000 -1.000000
vn 0.000000 0.000000 -1.000000
vn 0.000000 0.000000 -1.000000
vn 0.000000 0.000000 -1.000000
vn 1.000000 0.000000 0.000000
vn 1.000000 0.000000 0.000000
vn 1.000000 0.000000 0.000000
vn 1.000000 0.000000 0.000000
vn 0.000000 1.000000 0.000000
vn 0.000000 1.000000 0.000000
vn 0.000000 1.000000 0.000000
vn 0.000000 1.000000 0.000000
vn 0.000000 -1.000000 0.000000
vn 0.000000 -1.000000 0.000000
vn 0.000000 -1.000000 0.000000
vn 0.000000 -1.000000 0.000000
vn 0.000000 0.000000 1.000000
vn 0.000000 0.000000 1.000000
vn 0.000000 0.000000 1.000000
vn 0.000000 0.000000 1.000000
vn 0.000000 1.000000 0.000000
vn 0.000000 1.000000 0.000000
vn 0.000000 1.000000 0.000000
vn 0.000000 1.000000 0.000000
vn 0.000000 0.000000 -1.000000
vn 0.000000 0.000000 -1.000000
vn 0.000000 0.000000 -1.000000
vn 0.000000 0.000000 -1.000000
vn 0.000000 -1.000000 0.000000
vn 0.000000 -1.000000 0.000000
vn 0.000000 -1.000000 0.000000
vn 0.000000 -1.000000 0.000000
vn 1.000000 0.000000 0.000000
vn 1.000000 0.000000 0.000000
vn 1.000000 0.000000 0.000000
vn 1.000000 0.000000 0.000000
vn -1.000000 0.000000 0.000000
vn -1.000000 0.000000 0.000000
vn -1.000000 0.000000 0.000000
vn -1.000000 0.000000 0.000000
vn 0.000000 0.000000 1.000000
vn 0.000000 0.000000 1.000000
vn 0.000000 0.000000 1.000000
vn 0.000000 0.000000 1.000000
vn 0.000000 1.000000 0.000000
vn 0.000000 1.000000 0.000000
vn 0.000000 1.000000 0.000000
vn 0.000000 1.000000 0.000000
vn 0.000000 0.000000 -1.000000
vn 0.000000 0.000000 -1.000000
vn 0.000000 0.000000 -1.000000
vn 0.000000 0.000000 -1.000000
vn 0.000000 -1.000000 0.000000
vn 0.000000 -1.000000 0.000000
vn 0.000000 -1.000000 0.000000
vn 0.000000 -1.000000 0.000000
vn 1.000000 0.000000 0.000000
vn 1.000000 0.000000 0.000000
vn 1.000000 0.000000 0.000000
vn 1.000000 0.000000 0.000000
vn -1.000000 0.000000 0.000000
vn -1.000000 0.000000 0.000000
vn -1.000000 0.000000 0.000000
vn -1.000000 0.000000 0.000000
vn 0.000000 0.000000 1.000000
vn 0.000000 0.000000 1.000000
vn 0.000000 0.000000 1.000000
vn 0.000000 0.000000 1.000000
vn -1.000000 0.000000 0.000000
vn -1.000000 0.000000 0.000000
vn -1.000000 0.000000 0.000000
vn -1.000000 0.000000 0.000000
vn 0.000000 0.000000 -1.000000
vn 0.000000 0.000000 -1.000000
vn 0.000000 0.000000 -1.000000
vn 0.000000 0.000000 -1.000000
vn 1.000000 0.000000 0.000000
vn 1.000000 0.000000 0.000000
vn 1.000000 0.000000 0.000000
vn 1.000000 0.000000 0.000000
vn 0.000000 1.000000 0.000000
vn 0.000000 1.000000 0.000000
vn 0.000000 1.000000 0.000000
vn 0.000000 1.000000 0.000000
vn 0.000000 -1.000000 0.000000
vn 0.000000 -1.000000 0.000000
vn 0.000000 -1.000000 0.000000
vn 0.000000 -1.000000 0.000000
vn 0.000000 0.000000 1.000000
vn 0.000000 0.000000 1.000000
vn 0.000000 0.000000 1.000000
vn 0.000000 0.000000 1.000000
vn -1.000000 0.000000 0.000000
vn -1.000000 0.000000 0.000000
vn -1.000000 0.000000 0.000000
vn -1.000000 0.000000 0.000000
vn 0.000000 0.000000 -1.000000
vn 0.000000 0.000000 -1.000000
vn 0.000000 0.000000 -1.000000
vn 0.000000 0.000000 -1.000000
vn 1.000000 0.000000 0.000000
vn 1.000000 0.000000 0.000000
vn 1.000000 0.000000 0.000000
vn 1.000000 0.000000 0.000000
vn 0.000000 1.000000 0.000000
vn 0.000000 1.000000 0.000000
vn 0.000000 1.000000 0.000000
vn 0.000000 1.000000 0.000000
vn 0.000000 -1.000000 0.000000
vn 0.000000 -1.000000 0.000000
vn 0.000000 -1.000000 0.000000
vn 0.000000 -1.000000 0.000000
s 1
g polySurface16
usemtl phong1SG
f 1/1/1 2/2/2 3/3/3
f 3/3/3 2/2/2 4/4/4
s 2
f 3/5/5 4/6/6 5/55/7
f 5/55/7 4/6/6 6/56/8
s 3
f 5/7/9 6/8/10 7/9/11
f 7/9/11 6/8/10 8/10/12
s 4
f 7/11/13 8/12/14 1/13/15
f 1/13/15 8/12/14 2/14/16
s 5
f 2/2/17 8/15/18 4/4/19
f 4/4/19 8/15/18 6/16/20
s 6
f 7/17/21 1/1/22 5/18/23
f 5/18/23 1/1/22 3/3/24
s 7
f 9/19/25 10/20/26 11/21/27
f 11/21/27 10/20/26 12/22/28
s 8
f 11/23/29 12/24/30 13/25/31
f 13/25/31 12/24/30 14/26/32
s 9
f 13/25/33 14/26/34 15/27/35
f 15/27/35 14/26/34 16/28/36
s 10
f 15/27/37 16/28/38 9/29/39
f 9/29/39 16/28/38 10/30/40
s 11
f 10/31/41 16/32/42 12/33/43
f 12/33/43 16/32/42 14/34/44
s 12
f 15/35/45 9/36/46 13/37/47
f 13/37/47 9/36/46 11/38/48
s 13
f 17/39/49 18/40/50 19/41/51
f 19/41/51 18/40/50 20/42/52
s 14
f 19/43/53 20/44/54 21/45/55
f 21/45/55 20/44/54 22/46/56
s 15
f 21/45/57 22/46/58 23/47/59
f 23/47/59 22/46/58 24/48/60
s 16
f 23/47/61 24/48/62 17/49/63
f 17/49/63 24/48/62 18/50/64
s 17
f 18/51/65 24/52/66 20/53/67
f 20/53/67 24/52/66 22/54/68
s 18
f 23/57/69 17/58/70 21/115/71
f 21/115/71 17/58/70 19/116/72
s 19
f 25/59/73 26/60/74 27/61/75
f 27/61/75 26/60/74 28/62/76
s 20
f 27/63/77 28/64/78 29/65/79
f 29/65/79 28/64/78 30/66/80
s 21
f 29/65/81 30/66/82 31/67/83
f 31/67/83 30/66/82 32/68/84
s 22
f 31/67/85 32/68/86 25/69/87
f 25/69/87 32/68/86 26/70/88
s 23
f 26/71/89 32/72/90 28/73/91
f 28/73/91 32/72/90 30/74/92
s 24
f 31/75/93 25/76/94 29/77/95
f 29/77/95 25/76/94 27/78/96
s 25
f 33/79/97 34/80/98 35/81/99
f 35/81/99 34/80/98 36/82/100
s 26
f 35/83/101 36/84/102 37/85/103
f 37/85/103 36/84/102 38/86/104
s 27
f 37/85/105 38/86/106 39/87/107
f 39/87/107 38/86/106 40/88/108
s 28
f 39/87/109 40/88/110 33/89/111
f 33/89/111 40/88/110 34/90/112
s 29
f 34/91/113 40/92/114 36/93/115
f 36/93/115 40/92/114 38/94/116
s 30
f 39/95/117 33/96/118 37/97/119
f 37/97/119 33/96/118 35/98/120
s 31
f 41/99/121 42/100/122 43/101/123
f 43/101/123 42/100/122 44/102/124
s 32
f 43/101/125 44/102/126 45/103/127
f 45/103/127 44/102/126 46/104/128
s 33
f 45/103/129 46/104/130 47/105/131
f 47/105/131 46/104/130 48/106/132
s 34
f 47/105/133 48/106/134 41/107/135
f 41/107/135 48/106/134 42/108/136
s 35
f 42/109/137 48/110/138 44/111/139
f 44/111/139 48/110/138 46/112/140
s 36
f 47/113/141 41/99/142 45/114/143
f 45/114/143 41/99/142 43/101/144
