# This file uses centimeters as units for non-parametric coordinates.

mtllib Mesa.mtl
g default
v -1.194425 -2.169460 0.689602
v 1.194425 -2.169460 0.689602
v -0.000000 -2.169460 -1.379203
v 0.000000 -2.169460 1.379203
v 1.194425 -2.169460 -0.689602
v -1.194425 -2.169460 -0.689602
v -0.000000 -1.322940 0.000000
v -1.379203 -2.169460 0.000000
v -0.689602 -2.169460 1.194425
v 0.000000 -1.639650 0.540550
v -0.468130 -1.639650 -0.270275
v -0.468130 -1.639650 0.270275
v 0.689602 -2.169460 1.194425
v 1.379203 -2.169460 -0.000000
v 0.468130 -1.639650 -0.270275
v 0.468130 -1.639650 0.270275
v 0.689601 -2.169460 -1.194425
v -0.689602 -2.169460 -1.194425
v -0.000000 -1.639650 -0.540550
v -0.895819 -1.954191 -0.517201
v -1.332208 -2.169460 -0.356964
v -0.988208 -1.963334 0.172401
v -0.468130 -1.639650 0.000000
v -0.942013 -1.954191 -0.172400
v -1.332208 -2.169460 0.356964
v -0.975244 -2.169460 0.975244
v -0.643407 -1.954191 0.769613
v -0.965111 -1.954191 0.557207
v -0.356964 -2.169460 1.332208
v 0.000000 -1.954191 1.034402
v -0.234065 -1.639650 0.405412
v -0.321704 -1.954191 0.902008
v -0.000000 -1.322940 0.187614
v -0.162479 -1.322940 -0.093807
v -0.162479 -1.322940 0.093807
v 0.356964 -2.169460 1.332208
v 0.643407 -1.954191 0.769613
v 0.234065 -1.639650 0.405412
v 0.321704 -1.954191 0.902008
v 0.975244 -2.169460 0.975244
v 1.332208 -2.169460 0.356964
v 0.988208 -1.954191 0.172400
v 0.965111 -1.954191 0.557207
v 1.332208 -2.169460 -0.356964
v 0.895819 -1.954191 -0.517201
v 0.468130 -1.639650 -0.000000
v 0.942013 -1.954191 -0.172401
v 0.162479 -1.322940 -0.093807
v 0.162479 -1.322940 0.093807
v 0.975244 -2.169460 -0.975244
v 0.344801 -1.954191 -0.942013
v 0.234065 -1.639650 -0.405412
v 0.620310 -1.954191 -0.729607
v 0.356964 -2.169460 -1.332208
v -0.356964 -2.169460 -1.332208
v -0.344801 -1.954191 -0.942013
v -0.000000 -1.954191 -1.114414
v -0.975244 -2.169460 -0.975244
v -0.234065 -1.639650 -0.405412
v -0.620310 -1.954191 -0.729607
v -0.000000 -1.322940 -0.187614
vt 0.066987 0.250000
vt 0.933013 0.250000
vt 0.500000 1.000000
vt 0.500000 0.000000
vt 0.933013 0.750000
vt 0.066987 0.750000
vt 0.500000 0.500000
vt 0.000000 0.500000
vt 0.250000 0.066987
vt 0.500000 0.250000
vt 0.283494 0.625000
vt 0.283494 0.375000
vt 0.750000 0.066987
vt 1.000000 0.500000
vt 0.716506 0.625000
vt 0.716506 0.375000
vt 0.750000 0.933013
vt 0.250000 0.933013
vt 0.500000 0.750000
vt 0.175240 0.687500
vt 0.017037 0.629409
vt 0.141747 0.437500
vt 0.283494 0.500000
vt 0.158494 0.562500
vt 0.017037 0.370590
vt 0.146447 0.146447
vt 0.266747 0.220994
vt 0.150120 0.297997
vt 0.370591 0.017037
vt 0.500000 0.125000
vt 0.391747 0.312500
vt 0.383373 0.172997
vt 0.500000 0.375000
vt 0.391747 0.562500
vt 0.391747 0.437500
vt 0.629410 0.017037
vt 0.733253 0.220994
vt 0.608253 0.312500
vt 0.616627 0.172997
vt 0.853553 0.146447
vt 0.982963 0.370591
vt 0.858253 0.437500
vt 0.849880 0.297997
vt 0.982963 0.629410
vt 0.824759 0.687500
vt 0.716506 0.500000
vt 0.841506 0.562500
vt 0.608253 0.562500
vt 0.608253 0.437500
vt 0.853553 0.853553
vt 0.625000 0.841506
vt 0.608253 0.687500
vt 0.724880 0.764503
vt 0.629409 0.982963
vt 0.370590 0.982963
vt 0.375000 0.841506
vt 0.500000 0.904006
vt 0.146447 0.853553
vt 0.391747 0.687500
vt 0.275120 0.764503
vt 0.500000 0.625000
vn -0.613567 0.785435 0.081412
vn -0.485781 0.827862 -0.280466
vn -0.509041 0.859043 -0.054055
vn -0.434066 0.865322 -0.250608
vn -0.458637 0.848255 -0.264794
vn -0.470556 0.876320 -0.103148
vn -0.469044 0.883114 -0.010353
vn -0.510502 0.859855 -0.006070
vn -0.354262 0.913958 0.197938
vn -0.521170 0.848543 0.091417
vn -0.442332 0.862473 0.245931
vn -0.546303 0.775932 0.315408
vn -0.350548 0.842019 0.410026
vn -0.225512 0.878836 0.420466
vn -0.250205 0.859574 0.445568
vn -0.199111 0.858875 0.471899
vn -0.145949 0.876320 0.459087
vn 0.000000 0.848255 0.529588
vn 0.000000 0.865322 0.501216
vn 0.000000 0.827862 0.560932
vn -0.373893 0.787758 0.489531
vn 0.000000 0.814248 0.580517
vn -0.576344 0.746393 0.332753
vn 0.000000 1.000000 0.000000
vn -0.502742 0.814248 -0.290258
vn 0.373893 0.787758 0.489531
vn 0.199111 0.858875 0.471899
vn 0.145949 0.876320 0.459087
vn 0.225512 0.878836 0.420466
vn 0.250205 0.859574 0.445568
vn 0.348784 0.915314 0.201370
vn 0.350548 0.842019 0.410025
vn 0.440396 0.861047 0.254263
vn 0.546303 0.775932 0.315408
vn 0.530366 0.842019 0.098571
vn 0.476890 0.878836 -0.014934
vn 0.510976 0.859574 -0.006100
vn 0.508232 0.858875 -0.063514
vn 0.470556 0.876320 -0.103148
vn 0.458637 0.848255 -0.264794
vn 0.434065 0.865322 -0.250608
vn 0.485781 0.827862 -0.280466
vn 0.610893 0.787758 0.079035
vn 0.502742 0.814248 -0.290258
vn 0.576344 0.746393 0.332752
vn 0.237000 0.787758 -0.568566
vn 0.309121 0.858875 -0.408384
vn 0.324607 0.876320 -0.355939
vn 0.251378 0.878836 -0.405532
vn 0.260771 0.859573 -0.439468
vn -0.000000 0.915314 -0.402741
vn 0.179819 0.842019 -0.508596
vn -0.000000 0.861047 -0.508525
vn -0.000000 0.775932 -0.630817
vn -0.179819 0.842019 -0.508596
vn -0.251378 0.878836 -0.405532
vn -0.260771 0.859573 -0.439468
vn -0.309121 0.858875 -0.408384
vn -0.324607 0.876320 -0.355939
vn -0.237000 0.787758 -0.568566
vn -0.000000 0.746393 -0.665505
s 1
g pDisc1
usemtl lambert4SG
f 23/23/1 11/11/2 24/24/3
f 24/24/3 11/11/2 20/20/4
f 6/6/5 21/21/6 20/20/4
f 20/20/4 21/21/6 24/24/3
f 21/21/6 8/8/7 24/24/3
f 24/24/3 8/8/7 22/22/8
f 12/12/9 23/23/1 22/22/8
f 22/22/8 23/23/1 24/24/3
f 8/8/7 25/25/10 22/22/8
f 22/22/8 25/25/10 28/28/11
f 25/25/10 1/1/12 28/28/11
f 28/28/11 1/1/12 26/26/13
f 9/9/14 27/27/15 26/26/13
f 26/26/13 27/27/15 28/28/11
f 27/27/15 12/12/9 28/28/11
f 28/28/11 12/12/9 22/22/8
f 27/27/15 9/9/14 32/32/16
f 32/32/16 9/9/14 29/29/17
f 4/4/18 30/30/19 29/29/17
f 29/29/17 30/30/19 32/32/16
f 30/30/19 10/10/20 32/32/16
f 32/32/16 10/10/20 31/31/21
f 12/12/9 27/27/15 31/31/21
f 31/31/21 27/27/15 32/32/16
f 10/10/20 33/33/22 31/31/21
f 31/31/21 33/33/22 35/35/23
f 33/33/22 7/7/24 35/35/23
f 35/35/23 7/7/24 34/34/25
f 11/11/2 23/23/1 34/34/25
f 34/34/25 23/23/1 35/35/23
f 12/12/9 31/31/21 23/23/1
f 23/23/1 31/31/21 35/35/23
f 38/38/26 10/10/20 39/39/27
f 39/39/27 10/10/20 30/30/19
f 4/4/18 36/36/28 30/30/19
f 30/30/19 36/36/28 39/39/27
f 36/36/28 13/13/29 39/39/27
f 39/39/27 13/13/29 37/37/30
f 16/16/31 38/38/26 37/37/30
f 37/37/30 38/38/26 39/39/27
f 13/13/29 40/40/32 37/37/30
f 37/37/30 40/40/32 43/43/33
f 40/40/32 2/2/34 43/43/33
f 43/43/33 2/2/34 41/41/35
f 14/14/36 42/42/37 41/41/35
f 41/41/35 42/42/37 43/43/33
f 42/42/37 16/16/31 43/43/33
f 43/43/33 16/16/31 37/37/30
f 42/42/37 14/14/36 47/47/38
f 47/47/38 14/14/36 44/44/39
f 5/5/40 45/45/41 44/44/39
f 44/44/39 45/45/41 47/47/38
f 45/45/41 15/15/42 47/47/38
f 47/47/38 15/15/42 46/46/43
f 16/16/31 42/42/37 46/46/43
f 46/46/43 42/42/37 47/47/38
f 15/15/42 48/48/44 46/46/43
f 46/46/43 48/48/44 49/49/45
f 48/48/44 7/7/24 49/49/45
f 49/49/45 7/7/24 33/33/22
f 10/10/20 38/38/26 33/33/22
f 33/33/22 38/38/26 49/49/45
f 16/16/31 46/46/43 38/38/26
f 38/38/26 46/46/43 49/49/45
f 52/52/46 15/15/42 53/53/47
f 53/53/47 15/15/42 45/45/41
f 5/5/40 50/50/48 45/45/41
f 45/45/41 50/50/48 53/53/47
f 50/50/48 17/17/49 53/53/47
f 53/53/47 17/17/49 51/51/50
f 19/19/51 52/52/46 51/51/50
f 51/51/50 52/52/46 53/53/47
f 17/17/49 54/54/52 51/51/50
f 51/51/50 54/54/52 57/57/53
f 54/54/52 3/3/54 57/57/53
f 57/57/53 3/3/54 55/55/55
f 18/18/56 56/56/57 55/55/55
f 55/55/55 56/56/57 57/57/53
f 56/56/57 19/19/51 57/57/53
f 57/57/53 19/19/51 51/51/50
f 56/56/57 18/18/56 60/60/58
f 60/60/58 18/18/56 58/58/59
f 6/6/5 20/20/4 58/58/59
f 58/58/59 20/20/4 60/60/58
f 20/20/4 11/11/2 60/60/58
f 60/60/58 11/11/2 59/59/60
f 19/19/51 56/56/57 59/59/60
f 59/59/60 56/56/57 60/60/58
f 11/11/2 34/34/25 59/59/60
f 59/59/60 34/34/25 61/61/61
f 34/34/25 7/7/24 61/61/61
f 61/61/61 7/7/24 48/48/44
f 15/15/42 52/52/46 48/48/44
f 48/48/44 52/52/46 61/61/61
f 19/19/51 59/59/60 52/52/46
f 52/52/46 59/59/60 61/61/61
g default
v -2.312407 1.592834 2.312407
v 2.312407 1.592834 2.312407
v -2.312407 1.796332 2.312407
v 2.312407 1.796332 2.312407
v -2.312407 1.796332 -2.312407
v 2.312407 1.796332 -2.312407
v -2.312407 1.592834 -2.312407
v 2.312407 1.592834 -2.312407
vt 0.375000 0.000000
vt 0.625000 0.000000
vt 0.375000 0.250000
vt 0.625000 0.250000
vt 0.375000 0.500000
vt 0.625000 0.500000
vt 0.375000 0.750000
vt 0.625000 0.750000
vt 0.375000 1.000000
vt 0.625000 1.000000
vt 0.875000 0.000000
vt 0.875000 0.250000
vt 0.125000 0.000000
vt 0.125000 0.250000
vn 0.000000 0.000000 1.000000
vn 0.000000 0.000000 1.000000
vn 0.000000 0.000000 1.000000
vn 0.000000 0.000000 1.000000
vn 0.000000 1.000000 0.000000
vn 0.000000 1.000000 0.000000
vn 0.000000 1.000000 0.000000
vn 0.000000 1.000000 0.000000
vn 0.000000 0.000000 -1.000000
vn 0.000000 0.000000 -1.000000
vn 0.000000 0.000000 -1.000000
vn 0.000000 0.000000 -1.000000
vn 0.000000 -1.000000 0.000000
vn 0.000000 -1.000000 0.000000
vn 0.000000 -1.000000 0.000000
vn 0.000000 -1.000000 0.000000
vn 1.000000 0.000000 0.000000
vn 1.000000 0.000000 0.000000
vn 1.000000 0.000000 0.000000
vn 1.000000 0.000000 0.000000
vn -1.000000 0.000000 0.000000
vn -1.000000 0.000000 0.000000
vn -1.000000 0.000000 0.000000
vn -1.000000 0.000000 0.000000
s 1
g pCube1
usemtl lambert7SG
f 62/62/62 63/63/63 64/64/64
f 64/64/64 63/63/63 65/65/65
s 2
f 64/64/66 65/65/67 66/66/68
f 66/66/68 65/65/67 67/67/69
s 3
f 66/66/70 67/67/71 68/68/72
f 68/68/72 67/67/71 69/69/73
s 4
f 68/68/74 69/69/75 62/70/76
f 62/70/76 69/69/75 63/71/77
s 5
f 63/63/78 69/72/79 65/65/80
f 65/65/80 69/72/79 67/73/81
s 6
f 68/74/82 62/62/83 66/75/84
f 66/75/84 62/62/83 64/64/85
g default
v 0.169466 -1.323379 -0.058784
v 0.145128 -1.323379 -0.107808
v 0.107221 -1.323379 -0.146713
v 0.059455 -1.323379 -0.171691
v 0.006506 -1.323379 -0.180298
v -0.046443 -1.323379 -0.171691
v -0.094209 -1.323379 -0.146713
v -0.132117 -1.323379 -0.107808
v -0.156455 -1.323379 -0.058784
v -0.164841 -1.323379 -0.004442
v -0.156455 -1.323379 0.049901
v -0.132117 -1.323379 0.098924
v -0.094209 -1.323379 0.137829
v -0.046443 -1.323379 0.162808
v 0.006506 -1.323379 0.171415
v 0.059455 -1.323379 0.162808
v 0.107221 -1.323379 0.137829
v 0.145128 -1.323379 0.098924
v 0.169466 -1.323379 0.049901
v 0.177852 -1.323379 -0.004442
v 0.169466 1.574524 -0.058784
v 0.145128 1.574524 -0.107808
v 0.107221 1.574524 -0.146713
v 0.059455 1.574524 -0.171691
v 0.006506 1.574524 -0.180298
v -0.046443 1.574524 -0.171691
v -0.094209 1.574524 -0.146713
v -0.132117 1.574524 -0.107808
v -0.156455 1.574524 -0.058784
v -0.164841 1.574524 -0.004442
v -0.156455 1.574524 0.049901
v -0.132117 1.574524 0.098924
v -0.094209 1.574524 0.137829
v -0.046443 1.574524 0.162808
v 0.006506 1.574524 0.171415
v 0.059455 1.574524 0.162808
v 0.107221 1.574524 0.137829
v 0.145128 1.574524 0.098924
v 0.169466 1.574524 0.049901
v 0.177852 1.574524 -0.004442
v 0.006506 -1.323379 -0.004442
v 0.006506 1.574524 -0.004442
vt 0.648603 0.107966
vt 0.626409 0.064408
vt 0.591842 0.029841
vt 0.548284 0.007647
vt 0.500000 -0.000000
vt 0.451716 0.007647
vt 0.408159 0.029841
vt 0.373591 0.064409
vt 0.351397 0.107966
vt 0.343750 0.156250
vt 0.351397 0.204534
vt 0.373591 0.248091
vt 0.408159 0.282659
vt 0.451716 0.304853
vt 0.500000 0.312500
vt 0.548284 0.304853
vt 0.591841 0.282659
vt 0.626409 0.248091
vt 0.648603 0.204534
vt 0.656250 0.156250
vt 0.375000 0.312500
vt 0.387500 0.312500
vt 0.400000 0.312500
vt 0.412500 0.312500
vt 0.425000 0.312500
vt 0.437500 0.312500
vt 0.450000 0.312500
vt 0.462500 0.312500
vt 0.475000 0.312500
vt 0.487500 0.312500
vt 0.500000 0.312500
vt 0.512500 0.312500
vt 0.525000 0.312500
vt 0.537500 0.312500
vt 0.550000 0.312500
vt 0.562500 0.312500
vt 0.575000 0.312500
vt 0.587500 0.312500
vt 0.600000 0.312500
vt 0.612500 0.312500
vt 0.625000 0.312500
vt 0.375000 0.687500
vt 0.387500 0.687500
vt 0.400000 0.687500
vt 0.412500 0.687500
vt 0.425000 0.687500
vt 0.437500 0.687500
vt 0.450000 0.687500
vt 0.462500 0.687500
vt 0.475000 0.687500
vt 0.487500 0.687500
vt 0.500000 0.687500
vt 0.512500 0.687500
vt 0.525000 0.687500
vt 0.537500 0.687500
vt 0.550000 0.687500
vt 0.562500 0.687500
vt 0.575000 0.687500
vt 0.587500 0.687500
vt 0.600000 0.687500
vt 0.612500 0.687500
vt 0.625000 0.687500
vt 0.648603 0.795466
vt 0.626409 0.751908
vt 0.591842 0.717341
vt 0.548284 0.695147
vt 0.500000 0.687500
vt 0.451716 0.695147
vt 0.408159 0.717341
vt 0.373591 0.751909
vt 0.351397 0.795466
vt 0.343750 0.843750
vt 0.351397 0.892034
vt 0.373591 0.935591
vt 0.408159 0.970159
vt 0.451716 0.992353
vt 0.500000 1.000000
vt 0.548284 0.992353
vt 0.591841 0.970159
vt 0.626409 0.935591
vt 0.648603 0.892034
vt 0.656250 0.843750
vt 0.500000 0.156250
vt 0.500000 0.843750
vn 0.953364 0.000000 -0.301822
vn 0.816187 0.000000 -0.577788
vn 0.953364 0.000000 -0.301822
vn 0.816187 0.000000 -0.577788
vn 0.597773 0.000000 -0.801665
vn 0.597773 0.000000 -0.801665
vn 0.316345 0.000000 -0.948644
vn 0.316345 0.000000 -0.948644
vn -0.000000 0.000000 -1.000000
vn 0.000000 0.000000 -1.000000
vn -0.316346 0.000000 -0.948644
vn -0.316346 0.000000 -0.948644
vn -0.597774 0.000000 -0.801665
vn -0.597773 0.000000 -0.801665
vn -0.816187 0.000000 -0.577787
vn -0.816187 0.000000 -0.577788
vn -0.953364 0.000000 -0.301823
vn -0.953364 0.000000 -0.301823
vn -1.000000 0.000000 -0.000000
vn -1.000000 0.000000 0.000000
vn -0.953364 0.000000 0.301823
vn -0.953364 0.000000 0.301823
vn -0.816187 0.000000 0.577788
vn -0.816187 0.000000 0.577788
vn -0.597773 0.000000 0.801665
vn -0.597773 0.000000 0.801665
vn -0.316345 0.000000 0.948644
vn -0.316346 0.000000 0.948644
vn 0.000000 0.000000 1.000000
vn 0.000000 0.000000 1.000000
vn 0.316346 0.000000 0.948644
vn 0.316346 0.000000 0.948644
vn 0.597773 0.000000 0.801665
vn 0.597773 0.000000 0.801665
vn 0.816187 0.000000 0.577788
vn 0.816187 0.000000 0.577788
vn 0.953364 0.000000 0.301823
vn 0.953364 0.000000 0.301823
vn 1.000000 0.000000 0.000001
vn 1.000000 0.000000 0.000001
vn 0.000000 -1.000000 0.000000
vn 0.000000 -1.000000 0.000000
vn 0.000000 -1.000000 0.000000
vn 0.000000 -1.000000 0.000000
vn 0.000000 -1.000000 0.000000
vn 0.000000 -1.000000 0.000000
vn 0.000000 -1.000000 0.000000
vn 0.000000 -1.000000 0.000000
vn 0.000000 -1.000000 0.000000
vn 0.000000 -1.000000 0.000000
vn 0.000000 -1.000000 0.000000
vn 0.000000 -1.000000 0.000000
vn 0.000000 -1.000000 0.000000
vn 0.000000 -1.000000 0.000000
vn 0.000000 -1.000000 0.000000
vn 0.000000 -1.000000 0.000000
vn 0.000000 -1.000000 0.000000
vn 0.000000 -1.000000 0.000000
vn 0.000000 -1.000000 0.000000
vn 0.000000 -1.000000 0.000000
vn 0.000000 -1.000000 0.000000
vn 0.000000 1.000000 0.000000
vn 0.000000 1.000000 0.000000
vn 0.000000 1.000000 0.000000
vn 0.000000 1.000000 0.000000
vn 0.000000 1.000000 0.000000
vn 0.000000 1.000000 0.000000
vn 0.000000 1.000000 0.000000
vn 0.000000 1.000000 0.000000
vn 0.000000 1.000000 0.000000
vn 0.000000 1.000000 0.000000
vn 0.000000 1.000000 0.000000
vn 0.000000 1.000000 0.000000
vn 0.000000 1.000000 0.000000
vn 0.000000 1.000000 0.000000
vn 0.000000 1.000000 0.000000
vn 0.000000 1.000000 0.000000
vn 0.000000 1.000000 0.000000
vn 0.000000 1.000000 0.000000
vn 0.000000 1.000000 0.000000
vn 0.000000 1.000000 0.000000
vn 0.000000 1.000000 0.000000
s 1
g pCylinder1
usemtl lambert5SG
f 70/96/86 71/97/87 90/117/88
f 90/117/88 71/97/87 91/118/89
f 71/97/87 72/98/90 91/118/89
f 91/118/89 72/98/90 92/119/91
f 72/98/90 73/99/92 92/119/91
f 92/119/91 73/99/92 93/120/93
f 73/99/92 74/100/94 93/120/93
f 93/120/93 74/100/94 94/121/95
f 74/100/94 75/101/96 94/121/95
f 94/121/95 75/101/96 95/122/97
f 75/101/96 76/102/98 95/122/97
f 95/122/97 76/102/98 96/123/99
f 76/102/98 77/103/100 96/123/99
f 96/123/99 77/103/100 97/124/101
f 77/103/100 78/104/102 97/124/101
f 97/124/101 78/104/102 98/125/103
f 78/104/102 79/105/104 98/125/103
f 98/125/103 79/105/104 99/126/105
f 79/105/104 80/106/106 99/126/105
f 99/126/105 80/106/106 100/127/107
f 80/106/106 81/107/108 100/127/107
f 100/127/107 81/107/108 101/128/109
f 81/107/108 82/108/110 101/128/109
f 101/128/109 82/108/110 102/129/111
f 82/108/110 83/109/112 102/129/111
f 102/129/111 83/109/112 103/130/113
f 83/109/112 84/110/114 103/130/113
f 103/130/113 84/110/114 104/131/115
f 84/110/114 85/111/116 104/131/115
f 104/131/115 85/111/116 105/132/117
f 85/111/116 86/112/118 105/132/117
f 105/132/117 86/112/118 106/133/119
f 86/112/118 87/113/120 106/133/119
f 106/133/119 87/113/120 107/134/121
f 87/113/120 88/114/122 107/134/121
f 107/134/121 88/114/122 108/135/123
f 88/114/122 89/115/124 108/135/123
f 108/135/123 89/115/124 109/136/125
f 89/115/124 70/116/86 109/136/125
f 109/136/125 70/116/86 90/137/88
s 2
f 71/77/126 70/76/127 110/158/128
f 72/78/129 71/77/126 110/158/128
f 73/79/130 72/78/129 110/158/128
f 74/80/131 73/79/130 110/158/128
f 75/81/132 74/80/131 110/158/128
f 76/82/133 75/81/132 110/158/128
f 77/83/134 76/82/133 110/158/128
f 78/84/135 77/83/134 110/158/128
f 79/85/136 78/84/135 110/158/128
f 80/86/137 79/85/136 110/158/128
f 81/87/138 80/86/137 110/158/128
f 82/88/139 81/87/138 110/158/128
f 83/89/140 82/88/139 110/158/128
f 84/90/141 83/89/140 110/158/128
f 85/91/142 84/90/141 110/158/128
f 86/92/143 85/91/142 110/158/128
f 87/93/144 86/92/143 110/158/128
f 88/94/145 87/93/144 110/158/128
f 89/95/146 88/94/145 110/158/128
f 70/76/127 89/95/146 110/158/128
s 3
f 90/156/147 91/155/148 111/159/149
f 91/155/148 92/154/150 111/159/149
f 92/154/150 93/153/151 111/159/149
f 93/153/151 94/152/152 111/159/149
f 94/152/152 95/151/153 111/159/149
f 95/151/153 96/150/154 111/159/149
f 96/150/154 97/149/155 111/159/149
f 97/149/155 98/148/156 111/159/149
f 98/148/156 99/147/157 111/159/149
f 99/147/157 100/146/158 111/159/149
f 100/146/158 101/145/159 111/159/149
f 101/145/159 102/144/160 111/159/149
f 102/144/160 103/143/161 111/159/149
f 103/143/161 104/142/162 111/159/149
f 104/142/162 105/141/163 111/159/149
f 105/141/163 106/140/164 111/159/149
f 106/140/164 107/139/165 111/159/149
f 107/139/165 108/138/166 111/159/149
f 108/138/166 109/157/167 111/159/149
f 109/157/167 90/156/147 111/159/149
g default
v -1.848217 1.807280 1.848217
v 1.848217 1.807280 1.848217
v -1.848217 1.833613 1.848217
v 1.848217 1.833613 1.848217
v -1.848217 1.833613 -1.848217
v 1.848217 1.833613 -1.848217
v -1.848217 1.807280 -1.848217
v 1.848217 1.807280 -1.848217
vt 0.375000 0.000000
vt 0.625000 0.000000
vt 0.375000 0.250000
vt 0.625000 0.250000
vt 0.375000 0.500000
vt 0.625000 0.500000
vt 0.375000 0.750000
vt 0.625000 0.750000
vt 0.375000 1.000000
vt 0.625000 1.000000
vt 0.875000 0.000000
vt 0.875000 0.250000
vt 0.125000 0.000000
vt 0.125000 0.250000
vn 0.000000 0.000000 1.000000
vn 0.000000 0.000000 1.000000
vn 0.000000 0.000000 1.000000
vn 0.000000 0.000000 1.000000
vn 0.000000 1.000000 0.000000
vn 0.000000 1.000000 0.000000
vn 0.000000 1.000000 0.000000
vn 0.000000 1.000000 0.000000
vn 0.000000 0.000000 -1.000000
vn 0.000000 0.000000 -1.000000
vn 0.000000 0.000000 -1.000000
vn 0.000000 0.000000 -1.000000
vn 0.000000 -1.000000 0.000000
vn 0.000000 -1.000000 0.000000
vn 0.000000 -1.000000 0.000000
vn 0.000000 -1.000000 0.000000
vn 1.000000 0.000000 0.000000
vn 1.000000 0.000000 0.000000
vn 1.000000 0.000000 0.000000
vn 1.000000 0.000000 0.000000
vn -1.000000 0.000000 0.000000
vn -1.000000 0.000000 0.000000
vn -1.000000 0.000000 0.000000
vn -1.000000 0.000000 0.000000
s 1
g pCube2
usemtl lambert8SG
f 112/160/168 113/161/169 114/162/170
f 114/162/170 113/161/169 115/163/171
s 2
f 114/162/172 115/163/173 116/164/174
f 116/164/174 115/163/173 117/165/175
s 3
f 116/164/176 117/165/177 118/166/178
f 118/166/178 117/165/177 119/167/179
s 4
f 118/166/180 119/167/181 112/168/182
f 112/168/182 119/167/181 113/169/183
s 5
f 113/161/184 119/170/185 115/163/186
f 115/163/186 119/170/185 117/171/187
s 6
f 118/172/188 112/160/189 116/173/190
f 116/173/190 112/160/189 114/162/191
