# This file uses centimeters as units for non-parametric coordinates.

mtllib hornoStructure.mtl
g default
v -0.079289 1.245299 -0.508504
v -0.079289 0.982567 -0.508504
v -0.079289 0.982567 0.115262
v -0.079289 1.245299 0.115262
v -0.055605 1.223848 0.115262
v -0.055605 1.002404 0.115262
v -0.055605 1.002404 -0.476140
v -0.055605 1.223848 -0.476140
v -0.079289 1.264324 0.115262
v -0.079289 1.264324 -0.508504
v 0.761637 1.002404 -0.476140
v 0.761637 1.223848 -0.476140
v 0.907471 1.245299 -0.508504
v 0.907471 0.982567 -0.508504
v 0.907471 1.264324 -0.508504
v 0.761637 1.002404 0.115262
v -0.079289 1.330620 -0.508504
v 0.907471 1.330620 -0.508504
v 0.761637 1.223848 0.115262
v -0.079289 1.330620 0.185109
v 0.907471 1.330620 0.185109
v 0.907471 1.245299 0.155381
v 0.907471 0.982567 0.155381
v -0.079289 1.254656 0.202171
v -0.079289 1.245299 0.192814
v 0.907471 1.245299 0.192814
v 0.907471 1.254656 0.202171
v 0.907471 1.313558 0.202171
v -0.079289 1.313558 0.202171
v 0.907471 1.264324 0.155381
v 0.803217 1.245299 0.115262
v 0.803217 0.982567 0.115262
v 0.803217 0.982567 0.155381
v 0.803217 1.245299 0.155381
vt 1.000000 1.000000
vt 1.000000 -0.000000
vt -0.000000 -0.000000
vt -0.000000 1.000000
vt 0.272850 0.250000
vt 0.272850 0.000000
vt 0.125000 0.000000
vt 0.125000 0.250000
vt 0.125000 0.000000
vt 0.344427 0.000000
vt 0.344427 0.055746
vt 0.125000 0.055746
vt 0.375000 0.500000
vt 0.375000 0.750000
vt 0.625000 0.750000
vt 0.625000 0.500000
vt 1.000000 1.000000
vt 1.000000 -0.000000
vt 0.000000 -0.000000
vt 0.000000 1.000000
vt 0.625000 0.694254
vt 0.625000 0.750000
vt 0.375000 0.750000
vt 0.375000 0.694254
vt 0.375000 0.897850
vt 0.625000 0.897850
vt 0.375000 0.500000
vt 0.625000 0.500000
vt 0.625000 0.352150
vt 0.375000 0.352150
vt 0.104494 0.252755
vt 0.895506 0.252755
vt 0.895506 0.749786
vt 0.104494 0.749786
vt 0.727150 0.000000
vt 0.727150 0.250000
vt 0.875000 0.250000
vt 0.875000 0.000000
vt 0.000000 1.000000
vt 0.000000 -0.000000
vt 0.104494 0.471865
vt 0.104494 0.457746
vt 0.895506 0.457746
vt 0.895506 0.471865
vt 0.895506 0.560748
vt 0.104494 0.560748
vt 0.104494 0.240528
vt 0.895506 0.240528
vt 0.641460 0.000000
vt 0.875000 0.000000
vt 0.875000 0.055746
vt 0.641460 0.055746
vt 0.507812 1.000000
vt 0.507812 -0.000000
vt 0.507812 -0.000000
vt 0.507812 1.000000
vt -0.000000 1.000000
vt -0.000000 -0.000000
vt 1.000000 -0.000000
vt 1.000000 1.000000
vt 0.000000 0.060431
vt 0.000000 1.000000
vt 1.000000 1.000000
vt 0.894347 0.000000
vt 0.894347 0.060431
vt 0.026837 0.075503
vt 0.026837 0.918354
vt 0.952884 0.918354
vt 1.000000 1.000000
vt 0.952884 0.075503
vt 1.000000 -0.000000
vt 0.625000 0.983540
vt 0.625000 0.996708
vt 0.375000 0.996708
vt 0.375000 0.969427
vt 0.598587 0.969427
vt 0.598587 0.983540
vt 0.371708 0.000000
vt 0.375000 0.027417
vt 0.375000 0.200005
vt 0.368998 0.250000
vt 0.125000 0.250000
vt 0.625000 0.027417
vt 0.628292 -0.000000
vt 0.875000 0.250000
vt 0.631001 0.250000
vt 0.625000 0.200005
vn -1.000000 0.000000 0.000000
vn -1.000000 0.000000 0.000000
vn -1.000000 0.000000 0.000000
vn -1.000000 0.000000 0.000000
vn 1.000000 0.000000 0.000000
vn 1.000000 0.000000 0.000000
vn 1.000000 0.000000 0.000000
vn 1.000000 0.000000 0.000000
vn -1.000000 0.000000 0.000000
vn -1.000000 0.000000 0.000000
vn 0.000000 0.000000 1.000000
vn 0.000000 0.000000 1.000000
vn 0.000000 0.000000 1.000000
vn 0.000000 0.000000 1.000000
vn 0.000000 0.000000 -1.000000
vn 0.000000 0.000000 -1.000000
vn 0.000000 0.000000 -1.000000
vn 0.000000 0.000000 -1.000000
vn 0.000000 0.000000 -1.000000
vn 0.000000 0.000000 -1.000000
vn 0.000000 1.000000 0.000000
vn 0.000000 1.000000 0.000000
vn 0.000000 1.000000 0.000000
vn 0.000000 1.000000 0.000000
vn 0.000000 0.000000 -1.000000
vn 0.000000 0.000000 -1.000000
vn 0.000000 -1.000000 0.000000
vn 0.000000 -1.000000 0.000000
vn 0.000000 -1.000000 0.000000
vn 0.000000 -1.000000 0.000000
vn 0.000000 1.000000 0.000000
vn 0.000000 1.000000 0.000000
vn 0.000000 1.000000 0.000000
vn 0.000000 1.000000 0.000000
vn -1.000000 0.000000 0.000000
vn -1.000000 0.000000 0.000000
vn -1.000000 0.000000 0.000000
vn -1.000000 0.000000 0.000000
vn 1.000000 0.000000 0.000000
vn 1.000000 0.000000 0.000000
vn 1.000000 0.000000 0.000000
vn 1.000000 0.000000 0.000000
vn 0.000000 -0.707101 0.707112
vn 0.000000 -0.707101 0.707112
vn 0.000000 -0.707101 0.707112
vn 0.000000 -0.707101 0.707112
vn 0.000000 0.000000 1.000000
vn 0.000000 0.000000 1.000000
vn 0.000000 0.000000 1.000000
vn 0.000000 0.000000 1.000000
vn 0.000000 0.707104 0.707109
vn 0.000000 0.707104 0.707109
vn 0.000000 0.707109 0.707105
vn 0.000000 0.707109 0.707104
vn 1.000000 -0.000001 0.000000
vn 1.000000 0.000000 0.000000
vn -1.000000 0.000000 0.000000
vn -1.000000 0.000000 0.000000
vn -1.000000 0.000000 0.000000
vn -1.000000 0.000000 0.000000
vn 0.000000 0.000000 1.000000
vn 0.000000 0.000000 1.000000
vn 0.000000 0.000000 1.000000
vn 0.000000 0.000000 1.000000
vn 0.000000 -1.000000 0.000000
vn 0.000000 -1.000000 0.000000
vn 0.000000 -1.000000 0.000000
vn 0.000000 -1.000000 0.000000
vn 0.000000 -1.000000 0.000000
vn 0.000000 -1.000000 0.000000
vn 0.000000 0.000000 1.000000
vn 0.000000 0.000000 1.000000
vn 0.000000 0.000000 1.000000
vn -0.000000 0.000000 1.000000
vn -0.000005 0.000000 1.000000
vn -0.000005 0.000000 1.000000
vn 0.000006 0.000000 1.000000
vn 0.000004 0.000000 1.000000
vn 0.000000 -1.000000 0.000000
vn 0.000000 -1.000000 0.000002
vn 0.000000 -1.000000 0.000002
vn 0.000000 -1.000000 0.000000
vn 0.000000 -1.000000 0.000000
vn 0.000000 -1.000000 0.000000
vn -1.000000 0.000000 0.000000
vn -1.000000 0.000000 0.000000
vn -1.000000 0.000000 0.000000
vn -1.000000 -0.000000 0.000000
vn -1.000000 0.000000 0.000000
vn 1.000000 -0.000005 0.000000
vn 1.000000 -0.000000 0.000000
vn 1.000000 -0.000001 0.000000
vn 1.000000 0.000001 0.000000
vn 1.000000 -0.000001 0.000000
s 1
g polySurface28
usemtl phong3SG
f 1/1/1 2/2/2 4/4/3
f 4/4/3 2/2/2 3/3/4
s 2
usemtl phong1SG
f 5/5/5 6/6/6 8/8/7
f 8/8/7 6/6/6 7/7/8
s 1
f 1/9/1 4/10/3 10/12/9
f 10/12/9 4/10/3 9/11/10
s 3
f 8/13/11 7/14/12 12/16/13
f 12/16/13 7/14/12 11/15/14
s 4
usemtl phong3SG
f 13/17/15 14/18/16 1/20/17
f 1/20/17 14/18/16 2/19/18
usemtl phong1SG
f 15/21/19 13/22/15 10/24/20
f 10/24/20 13/22/15 1/23/17
s 5
f 6/25/21 16/26/22 7/14/23
f 7/14/23 16/26/22 11/15/24
s 4
f 10/24/20 17/27/25 15/21/19
f 15/21/19 17/27/25 18/28/26
s 6
f 19/29/27 5/30/28 12/16/29
f 12/16/29 5/30/28 8/13/30
s 7
f 20/31/31 21/32/32 17/34/33
f 17/34/33 21/32/32 18/33/34
s 8
f 16/35/35 19/36/36 11/38/37
f 11/38/37 19/36/36 12/37/38
s 9
usemtl phong3SG
f 22/39/39 23/40/40 13/17/41
f 13/17/41 23/40/40 14/18/42
s 10
usemtl phong1SG
f 24/41/43 25/42/44 27/44/45
f 27/44/45 25/42/44 26/43/46
s 11
f 24/41/47 27/44/48 29/46/49
f 29/46/49 27/44/48 28/45/50
s 12
f 20/31/51 29/47/52 21/32/53
f 21/32/53 29/47/52 28/48/54
s 9
f 22/49/39 13/50/41 30/52/55
f 30/52/55 13/50/41 15/51/56
s 13
usemtl phong3SG
f 31/53/57 32/54/58 34/56/59
f 34/56/59 32/54/58 33/55/60
s 14
f 34/57/61 33/58/62 22/60/63
f 22/60/63 33/58/62 23/59/64
s 15
usemtl initialShadingGroup
f 3/61/65 2/62/66 32/65/67
f 14/63/68 23/59/69 2/62/66
f 33/64/70 32/65/67 23/59/69
f 2/62/66 23/59/69 32/65/67
s 16
usemtl phong3SG
f 31/69/71 4/4/72 19/68/73
f 19/68/73 4/4/72 5/67/74
f 4/4/72 3/3/75 5/67/74
f 3/3/75 6/66/76 5/67/74
f 3/3/75 32/71/77 6/66/76
f 6/66/76 32/71/77 16/70/78
f 31/69/71 19/68/73 32/71/77
f 19/68/73 16/70/78 32/71/77
s 17
usemtl phong1SG
f 22/72/79 26/73/80 34/77/81
f 26/73/80 25/74/82 34/77/81
f 25/74/82 4/75/83 34/77/81
f 4/75/83 31/76/84 34/77/81
s 1
f 4/10/3 25/78/85 9/11/10
f 17/82/86 10/12/9 20/81/87
f 10/12/9 9/11/10 20/81/87
f 20/81/87 9/11/10 29/80/88
f 9/11/10 25/78/85 29/80/88
f 25/78/85 24/79/89 29/80/88
s 9
f 22/49/39 30/52/55 26/84/90
f 15/51/56 18/85/91 30/52/55
f 26/84/90 30/52/55 27/83/92
f 27/83/92 30/52/55 28/87/93
f 28/87/93 30/52/55 21/86/94
f 30/52/55 18/85/91 21/86/94
