# This file uses centimeters as units for non-parametric coordinates.

mtllib vidriopcocina2.mtl
g default
v -0.028686 1.934528 0.446185
v -0.028686 1.826701 0.501126
v -0.028686 1.741129 0.586698
v -0.028686 1.686188 0.694525
v -0.028686 1.667257 0.814052
v -0.028686 1.686188 0.933580
v -0.028686 1.741129 1.041407
v -0.028686 1.826701 1.126979
v -0.028686 1.934528 1.181919
v -0.028686 2.054055 1.200851
v -0.028686 2.173583 1.181919
v -0.028686 2.281410 1.126979
v -0.028686 2.366982 1.041407
v -0.028686 2.421922 0.933580
v -0.028686 2.440853 0.814052
v -0.028686 2.421922 0.694525
v -0.028686 2.366982 0.586698
v -0.028686 2.281410 0.501126
v -0.028686 2.173582 0.446185
v -0.028686 2.054055 0.427254
v -0.108323 1.934528 0.446185
v -0.108323 1.826701 0.501126
v -0.108323 1.741129 0.586698
v -0.108323 1.686188 0.694525
v -0.108323 1.667257 0.814052
v -0.108323 1.686188 0.933580
v -0.108323 1.741129 1.041407
v -0.108323 1.826701 1.126979
v -0.108323 1.934528 1.181919
v -0.108323 2.054055 1.200851
v -0.108323 2.173583 1.181919
v -0.108323 2.281410 1.126979
v -0.108323 2.366982 1.041407
v -0.108323 2.421922 0.933580
v -0.108323 2.440853 0.814052
v -0.108323 2.421922 0.694525
v -0.108323 2.366982 0.586698
v -0.108323 2.281410 0.501126
v -0.108323 2.173582 0.446185
v -0.108323 2.054055 0.427254
v -0.028686 2.054055 0.814052
v -0.108323 2.054055 0.814052
vt 0.904509 0.206107
vt 0.975528 0.345491
vt 0.500000 0.500000
vt 0.793893 0.095491
vt 0.654509 0.024472
vt 0.500000 -0.000000
vt 0.345491 0.024472
vt 0.206107 0.095491
vt 0.095492 0.206107
vt 0.024472 0.345491
vt 0.000000 0.500000
vt 0.024472 0.654509
vt 0.095492 0.793893
vt 0.206107 0.904508
vt 0.345492 0.975528
vt 0.500000 1.000000
vt 0.654509 0.975528
vt 0.793893 0.904508
vt 0.904508 0.793893
vt 0.975528 0.654508
vt 0.375000 0.312500
vt 0.387500 0.312500
vt 0.400000 0.312500
vt 0.412500 0.312500
vt 0.425000 0.312500
vt 0.437500 0.312500
vt 0.450000 0.312500
vt 0.462500 0.312500
vt 0.475000 0.312500
vt 0.487500 0.312500
vt 0.500000 0.312500
vt 0.512500 0.312500
vt 0.525000 0.312500
vt 0.537500 0.312500
vt 0.550000 0.312500
vt 0.562500 0.312500
vt 0.575000 0.312500
vt 0.587500 0.312500
vt 0.600000 0.312500
vt 0.612500 0.312500
vt 0.625000 0.312500
vt 0.375000 0.687500
vt 0.387500 0.687500
vt 0.400000 0.687500
vt 0.412500 0.687500
vt 0.425000 0.687500
vt 0.437500 0.687500
vt 0.450000 0.687500
vt 0.462500 0.687500
vt 0.475000 0.687500
vt 0.487500 0.687500
vt 0.500000 0.687500
vt 0.512500 0.687500
vt 0.525000 0.687500
vt 0.537500 0.687500
vt 0.550000 0.687500
vt 0.562500 0.687500
vt 0.575000 0.687500
vt 0.587500 0.687500
vt 0.600000 0.687500
vt 0.612500 0.687500
vt 0.625000 0.687500
vt 0.805270 0.104007
vt 0.667961 0.029055
vt 0.500000 0.500000
vt 0.514210 0.000202
vt 0.359068 0.020273
vt 0.217722 0.087302
vt 0.104007 0.194730
vt 0.029055 0.332040
vt 0.000202 0.485790
vt 0.020273 0.640932
vt 0.087303 0.782278
vt 0.194730 0.895993
vt 0.332040 0.970945
vt 0.485790 0.999798
vt 0.640932 0.979727
vt 0.782278 0.912697
vt 0.895993 0.805270
vt 0.970945 0.667960
vt 0.999798 0.514210
vt 0.979727 0.359068
vt 1.000000 0.500000
vt 0.912698 0.217722
vn 0.000000 -0.309016 -0.951057
vn 0.000000 -0.587785 -0.809017
vn 0.000000 -0.309016 -0.951057
vn 0.000000 -0.587785 -0.809017
vn 0.000000 -0.809017 -0.587785
vn 0.000000 -0.809017 -0.587785
vn 0.000000 -0.951057 -0.309017
vn 0.000000 -0.951057 -0.309017
vn 0.000000 -1.000000 -0.000000
vn 0.000000 -1.000000 -0.000000
vn -0.000000 -0.951056 0.309017
vn -0.000000 -0.951056 0.309017
vn -0.000000 -0.809016 0.587786
vn -0.000000 -0.809017 0.587786
vn -0.000000 -0.587785 0.809017
vn -0.000000 -0.587785 0.809017
vn -0.000000 -0.309017 0.951056
vn -0.000000 -0.309017 0.951056
vn -0.000000 -0.000000 1.000000
vn 0.000000 0.000000 1.000000
vn 0.000000 0.309017 0.951056
vn 0.000000 0.309017 0.951056
vn 0.000000 0.587786 0.809017
vn 0.000000 0.587786 0.809017
vn 0.000000 0.809017 0.587786
vn 0.000000 0.809017 0.587786
vn 0.000000 0.951057 0.309017
vn 0.000000 0.951057 0.309017
vn 0.000000 1.000000 0.000000
vn 0.000000 1.000000 -0.000000
vn 0.000000 0.951057 -0.309017
vn 0.000000 0.951057 -0.309017
vn 0.000000 0.809017 -0.587786
vn 0.000000 0.809017 -0.587786
vn 0.000000 0.587785 -0.809017
vn 0.000000 0.587785 -0.809017
vn 0.000000 0.309017 -0.951056
vn 0.000000 0.309017 -0.951056
vn 0.000000 0.000001 -1.000000
vn 0.000000 0.000001 -1.000000
vn 1.000000 0.000000 0.000000
vn 1.000000 0.000000 0.000000
vn 1.000000 0.000000 0.000000
vn 1.000000 0.000000 0.000000
vn 1.000000 0.000000 0.000000
vn 1.000000 0.000000 0.000000
vn 1.000000 0.000000 0.000000
vn 1.000000 0.000000 0.000000
vn 1.000000 0.000000 0.000000
vn 1.000000 0.000000 0.000000
vn 1.000000 0.000000 0.000000
vn 1.000000 0.000000 0.000000
vn 1.000000 0.000000 0.000000
vn 1.000000 0.000000 0.000000
vn 1.000000 0.000000 0.000000
vn 1.000000 0.000000 0.000000
vn 1.000000 0.000000 0.000000
vn 1.000000 0.000000 0.000000
vn 1.000000 0.000000 0.000000
vn 1.000000 0.000000 0.000000
vn 1.000000 0.000000 0.000000
vn -1.000000 0.000000 0.000000
vn -1.000000 0.000000 0.000000
vn -1.000000 0.000000 0.000000
vn -1.000000 0.000000 0.000000
vn -1.000000 0.000000 0.000000
vn -1.000000 0.000000 0.000000
vn -1.000000 0.000000 0.000000
vn -1.000000 0.000000 0.000000
vn -1.000000 -0.000000 -0.000000
vn -1.000000 -0.000000 -0.000000
vn -1.000000 0.000000 0.000000
vn -1.000000 0.000000 0.000000
vn -1.000000 0.000000 0.000000
vn -1.000000 0.000000 0.000000
vn -1.000000 0.000000 0.000000
vn -1.000000 0.000000 0.000000
vn -1.000000 0.000000 0.000000
vn -1.000000 0.000000 0.000000
vn -1.000000 0.000000 0.000000
vn -1.000000 0.000000 0.000000
vn -1.000000 0.000000 0.000000
s 1
g pasted__pCylinder1 group1
usemtl pasted__phong1SG
f 1/21/1 2/22/2 21/42/3
f 21/42/3 2/22/2 22/43/4
f 2/22/2 3/23/5 22/43/4
f 22/43/4 3/23/5 23/44/6
f 3/23/5 4/24/7 23/44/6
f 23/44/6 4/24/7 24/45/8
f 4/24/7 5/25/9 24/45/8
f 24/45/8 5/25/9 25/46/10
f 5/25/9 6/26/11 25/46/10
f 25/46/10 6/26/11 26/47/12
f 6/26/11 7/27/13 26/47/12
f 26/47/12 7/27/13 27/48/14
f 7/27/13 8/28/15 27/48/14
f 27/48/14 8/28/15 28/49/16
f 8/28/15 9/29/17 28/49/16
f 28/49/16 9/29/17 29/50/18
f 9/29/17 10/30/19 29/50/18
f 29/50/18 10/30/19 30/51/20
f 10/30/19 11/31/21 30/51/20
f 30/51/20 11/31/21 31/52/22
f 11/31/21 12/32/23 31/52/22
f 31/52/22 12/32/23 32/53/24
f 12/32/23 13/33/25 32/53/24
f 32/53/24 13/33/25 33/54/26
f 13/33/25 14/34/27 33/54/26
f 33/54/26 14/34/27 34/55/28
f 14/34/27 15/35/29 34/55/28
f 34/55/28 15/35/29 35/56/30
f 15/35/29 16/36/31 35/56/30
f 35/56/30 16/36/31 36/57/32
f 16/36/31 17/37/33 36/57/32
f 36/57/32 17/37/33 37/58/34
f 17/37/33 18/38/35 37/58/34
f 37/58/34 18/38/35 38/59/36
f 18/38/35 19/39/37 38/59/36
f 38/59/36 19/39/37 39/60/38
f 19/39/37 20/40/39 39/60/38
f 39/60/38 20/40/39 40/61/40
f 20/40/39 1/41/1 40/61/40
f 40/61/40 1/41/1 21/62/3
s 2
f 2/1/41 1/2/42 41/3/43
f 3/4/44 2/1/41 41/3/43
f 4/5/45 3/4/44 41/3/43
f 5/6/46 4/5/45 41/3/43
f 6/7/47 5/6/46 41/3/43
f 7/8/48 6/7/47 41/3/43
f 8/9/49 7/8/48 41/3/43
f 9/10/50 8/9/49 41/3/43
f 10/11/51 9/10/50 41/3/43
f 11/12/52 10/11/51 41/3/43
f 12/13/53 11/12/52 41/3/43
f 13/14/54 12/13/53 41/3/43
f 14/15/55 13/14/54 41/3/43
f 15/16/56 14/15/55 41/3/43
f 16/17/57 15/16/56 41/3/43
f 17/18/58 16/17/57 41/3/43
f 18/19/59 17/18/58 41/3/43
f 19/20/60 18/19/59 41/3/43
f 20/83/61 19/20/60 41/3/43
f 1/2/42 20/83/61 41/3/43
s 3
f 21/63/62 22/64/63 42/65/64
f 22/64/63 23/66/65 42/65/64
f 23/66/65 24/67/66 42/65/64
f 24/67/66 25/68/67 42/65/64
f 25/68/67 26/69/68 42/65/64
f 26/69/68 27/70/69 42/65/64
f 27/70/69 28/71/70 42/65/64
f 28/71/70 29/72/71 42/65/64
f 29/72/71 30/73/72 42/65/64
f 30/73/72 31/74/73 42/65/64
f 31/74/73 32/75/74 42/65/64
f 32/75/74 33/76/75 42/65/64
f 33/76/75 34/77/76 42/65/64
f 34/77/76 35/78/77 42/65/64
f 35/78/77 36/79/78 42/65/64
f 36/79/78 37/80/79 42/65/64
f 37/80/79 38/81/80 42/65/64
f 38/81/80 39/82/81 42/65/64
f 39/82/81 40/84/82 42/65/64
f 40/84/82 21/63/62 42/65/64
