# This file uses centimeters as units for non-parametric coordinates.

mtllib puerta.mtl
g default
v 0.000671 0.003239 0.000933
v 0.000671 0.003239 0.049764
v 0.000671 0.742130 0.000933
v 0.892935 0.003239 0.000933
v 0.000671 0.742130 0.049764
v 0.892935 0.003239 0.049764
v 0.892935 0.742130 0.000933
v 0.892935 0.742130 0.049764
v 0.816391 0.353733 0.049764
v 0.759168 0.353733 0.099331
v 0.759168 0.353733 0.049764
v 0.759168 0.501158 0.049764
v 0.829131 0.353733 0.099331
v 0.759168 0.533981 0.099331
v 0.829131 0.533981 0.099331
v 0.829131 0.533981 0.049764
v 0.829131 0.386556 0.049764
v 0.771909 0.533981 0.049764
v 0.829131 0.353733 0.049764
v 0.759168 0.533981 0.049764
vt 0.125000 0.000000
vt 0.375000 0.000000
vt 0.125000 0.250000
vt 0.375000 0.750000
vt 0.500112 0.750000
vt 0.375000 1.000000
vt 0.375000 0.250000
vt 0.000000 0.000000
vt 1.000000 0.000000
vt 0.000000 1.000000
vt 0.500112 1.000000
vt 0.394980 0.101675
vt 0.778697 0.101675
vt 0.394980 0.868421
vt 0.778697 0.868421
vt 0.500112 0.250000
vt 0.375000 0.500000
vt 0.500112 0.500000
vt 0.548040 0.678635
vt 0.424442 0.802233
vt 0.424442 0.678635
vt 0.300843 0.197767
vt 0.424442 0.197767
vt 0.300843 0.321365
vt 0.575558 0.197767
vt 0.424442 0.348884
vt 0.575558 0.348884
vt 0.699157 0.348884
vt 0.699157 0.225285
vt 0.451960 0.472482
vt 0.575558 0.472482
vt 0.575558 0.678635
vt 0.575558 0.802233
vt 0.699157 0.197767
vt 0.300843 0.348884
vt 0.424442 0.472482
vt 0.928492 0.718295
vt 0.928492 0.518773
vt 0.928492 0.474352
vt 0.914214 0.474352
vt 0.850082 0.474352
vt 1.000000 1.000000
vt 0.850082 0.673873
vt 0.850082 0.718295
vt 0.864360 0.718295
vn -1.000000 0.000000 0.000000
vn -1.000000 0.000000 0.000000
vn -1.000000 0.000000 0.000000
vn 0.000000 -1.000000 0.000000
vn 0.000000 -1.000000 0.000000
vn 0.000000 -1.000000 0.000000
vn -1.000000 0.000000 0.000000
vn 0.000000 0.000000 1.000000
vn 0.000000 0.000000 1.000000
vn 0.000000 0.000000 1.000000
vn 0.000000 -1.000000 0.000000
vn 0.000000 0.000000 -1.000000
vn 0.000000 0.000000 -1.000000
vn 0.000000 0.000000 -1.000000
vn 0.000000 0.000000 -1.000000
vn 0.000000 1.000000 0.000000
vn 0.000000 1.000000 0.000000
vn 0.000000 1.000000 0.000000
vn 1.000000 0.000000 0.000000
vn 1.000000 0.000000 0.000000
vn 1.000000 0.000000 0.000000
vn 0.000000 -1.000000 0.000001
vn 0.000000 -1.000000 0.000001
vn 0.000000 -1.000000 0.000000
vn -1.000000 0.000000 0.000000
vn -1.000000 0.000000 0.000000
vn -1.000000 0.000000 0.000000
vn 0.000000 0.000000 1.000000
vn 0.000000 0.000000 1.000000
vn 0.000000 0.000000 1.000000
vn 0.000000 1.000000 0.000000
vn 0.000000 0.000000 1.000000
vn 1.000000 0.000000 0.000000
vn 1.000000 0.000000 0.000000
vn 1.000000 0.000000 0.000000
vn 0.000000 1.000000 0.000000
vn 0.000000 1.000000 0.000000
vn 0.000000 1.000000 0.000000
vn 1.000000 0.000000 0.000000
vn 0.000000 -1.000000 0.000000
vn 0.000000 -1.000000 0.000001
vn 1.000000 0.000000 0.000000
vn 1.000000 0.000000 0.000000
vn -1.000000 0.000000 0.000000
vn -1.000000 0.000000 0.000000
vn 0.000000 1.000000 0.000000
vn 0.000000 1.000000 0.000000
vn -0.000000 0.000000 1.000000
vn -0.000000 0.000000 1.000000
vn 0.000006 0.000000 1.000000
vn 0.000000 0.000000 1.000000
vn 0.000000 0.000000 1.000000
vn 0.000000 0.000000 1.000000
vn 0.000000 0.000000 1.000000
vn 0.000000 0.000000 1.000000
vn 0.000000 0.000000 0.000000
s 1
g polySurface21
usemtl phong1SG
f 1/1/1 2/2/2 3/3/3
s 2
f 1/4/4 4/5/5 2/6/6
s 1
f 3/3/3 2/2/2 5/7/7
s 3
f 2/8/8 6/9/9 5/10/10
s 2
f 2/6/6 4/5/5 6/11/11
s 4
f 3/12/12 7/13/13 1/14/14
f 1/14/14 7/13/13 4/15/15
s 5
f 5/7/16 8/16/17 3/17/18
s 6
f 7/18/19 6/11/20 4/5/21
s 7
usemtl phong2SG
f 9/19/22 10/20/23 11/21/24
s 8
f 11/22/25 10/23/26 12/24/27
s 9
f 10/23/28 13/25/29 14/26/30
s 5
usemtl phong1SG
f 3/17/18 8/16/17 7/18/31
s 9
usemtl phong2SG
f 14/26/30 13/25/29 15/27/32
s 10
f 16/28/33 15/27/34 17/29/35
s 11
f 18/30/36 15/27/37 16/31/38
s 6
usemtl phong1SG
f 8/16/39 6/11/20 7/18/19
s 7
usemtl phong2SG
f 19/32/40 13/33/41 9/19/22
f 9/19/22 13/33/41 10/20/23
s 10
f 15/27/34 13/25/42 17/29/35
f 17/29/35 13/25/42 19/34/43
s 8
f 10/23/26 14/26/44 12/24/27
f 12/24/27 14/26/44 20/35/45
s 11
f 20/36/46 14/26/47 18/30/36
f 18/30/36 14/26/47 15/27/37
s 3
usemtl phong1SG
f 8/42/48 16/37/49 6/9/9
f 16/37/49 17/38/50 6/9/9
f 17/38/50 19/39/51 6/9/9
f 11/41/52 6/9/9 9/40/53
f 19/39/51 9/40/53 6/9/9
f 6/9/9 11/41/52 5/10/10
f 11/41/52 12/43/54 5/10/10
f 12/43/54 20/44/55 5/10/10
f 8/42/48 5/10/10 16/37/49
f 5/10/10 20/44/55 16/37/49
f 20/44/55 18/45/56 16/37/49
