# This file uses centimeters as units for non-parametric coordinates.

mtllib mesaConPuertas.mtl
g default
v 0.005415 0.165233 0.632773
v 0.005415 0.904123 0.583942
v 0.005415 0.165233 0.583942
v 0.896082 0.165233 0.632773
v 0.140042 0.515727 0.632773
v 0.082819 0.515727 0.682340
v 0.082819 0.515727 0.632773
v 0.005415 0.904123 0.632773
v 0.082819 0.663151 0.632773
v 0.896082 0.165233 0.583942
v 0.152782 0.515727 0.682340
v 0.082819 0.695974 0.682340
v 0.152782 0.695974 0.682340
v 0.152782 0.695974 0.632773
v 0.152782 0.548550 0.632773
v 0.095560 0.695974 0.632773
v 0.896082 0.904123 0.632773
v 0.896082 0.904123 0.583942
v 0.152782 0.515727 0.632773
v 0.082819 0.695974 0.632773
vt 0.500112 0.000000
vt 0.500112 0.500000
vt 0.500112 0.750000
vt 0.500112 1.000000
vt 0.625000 1.000000
vt 0.553110 0.697488
vt 0.416467 0.834131
vt 0.416467 0.697488
vt 0.500112 0.250000
vt 0.279825 0.165869
vt 0.416467 0.165869
vt 0.279825 0.302512
vt 0.157552 0.847528
vt 0.157552 0.135008
vt 0.513493 0.847528
vt 0.583533 0.165869
vt 0.416467 0.332935
vt 0.625000 0.750000
vt 0.583533 0.332935
vt 0.720176 0.332935
vt 0.720176 0.196292
vt 0.446890 0.469577
vt 0.583533 0.469577
vt 0.999316 -0.000684
vt 0.000685 1.000684
vt -0.000684 0.000685
vt 0.625000 0.500000
vt 0.513493 0.135008
vt 0.625000 0.000000
vt 0.875000 0.000000
vt 0.625000 0.250000
vt 0.875000 0.250000
vt 0.583533 0.697488
vt 0.583533 0.834131
vt 0.720176 0.165869
vt 0.279825 0.332935
vt 0.416467 0.469577
vt 0.718753 0.834244
vt 0.519232 0.834517
vt 0.474810 0.834578
vt 0.474829 0.848882
vt 0.474917 0.913129
vt 1.000684 0.999315
vt 0.674438 0.912856
vt 0.718860 0.912795
vt 0.718841 0.898491
vn -1.000000 0.000000 -0.000001
vn -1.000000 0.000000 0.000000
vn -1.000000 0.000000 -0.000001
vn 0.000000 -1.000000 0.000000
vn 0.000000 -1.000000 0.000000
vn 0.000000 -1.000000 0.000000
vn 0.000000 -1.000000 -0.000001
vn 0.000000 -1.000000 -0.000001
vn 0.000000 -1.000000 0.000000
vn -1.000000 0.000000 0.000001
vn -1.000000 0.000000 0.000000
vn -1.000000 0.000000 0.000000
vn -1.000000 0.000000 0.000000
vn 0.000000 0.000000 -1.000000
vn 0.000000 0.000000 -1.000000
vn 0.000000 0.000000 -1.000000
vn 0.000000 0.000000 1.000000
vn 0.000000 0.000000 1.000000
vn 0.000000 0.000000 1.000000
vn 0.000000 -1.000000 0.000000
vn 0.000000 0.000000 1.000000
vn 1.000000 0.000000 0.000000
vn 1.000000 0.000000 0.000000
vn 1.000000 0.000000 0.000000
vn 0.000000 1.000000 0.000000
vn 0.000000 1.000000 0.000000
vn 0.000000 1.000000 0.000000
vn 0.000000 0.000000 1.000000
vn 0.000000 0.000000 1.000000
vn 0.000000 0.000000 1.000000
vn 0.000000 1.000000 0.000003
vn 0.000000 1.000000 0.000003
vn 0.000000 1.000000 0.000000
vn 0.000000 0.000000 -1.000000
vn 1.000000 -0.000000 0.000000
vn 1.000000 -0.000000 0.000000
vn 1.000000 -0.000000 0.000000
vn 0.000000 1.000000 0.000000
vn 1.000000 0.000000 0.000000
vn 0.000000 -1.000000 0.000000
vn 0.000000 -1.000000 -0.000001
vn 1.000000 0.000000 0.000000
vn 1.000000 0.000000 0.000000
vn -1.000000 0.000000 0.000000
vn -1.000000 0.000000 0.000000
vn 0.000000 1.000000 0.000000
vn 0.000000 1.000000 0.000000
vn 0.000001 -0.000000 1.000000
vn 0.000000 -0.000000 1.000000
vn 0.000000 -0.000000 1.000000
vn 0.000000 0.000000 1.000000
vn 0.000000 0.000000 1.000000
vn 0.000000 -0.000000 1.000000
vn -0.000002 0.000000 1.000000
vn 0.000007 0.000000 1.000000
vn 0.000000 0.000000 1.000000
s 1
g polySurface24
usemtl phong1SG
f 1/1/1 2/2/2 3/3/3
s 2
f 1/4/4 3/3/5 4/5/6
s 3
usemtl phong2SG
f 5/6/7 6/7/8 7/8/9
s 1
usemtl phong1SG
f 8/9/10 2/2/2 1/1/1
s 4
usemtl phong2SG
f 7/10/11 6/11/12 9/12/13
s 5
usemtl phong1SG
f 3/13/14 2/14/15 10/15/16
s 6
usemtl phong2SG
f 6/11/17 11/16/18 12/17/19
s 2
usemtl phong1SG
f 4/5/6 3/3/5 10/18/20
s 6
usemtl phong2SG
f 12/17/19 11/16/18 13/19/21
s 7
f 14/20/22 13/19/23 15/21/24
s 8
f 16/22/25 13/19/26 14/23/27
s 9
usemtl phong1SG
f 17/24/28 1/25/29 4/26/30
s 10
f 2/2/31 8/9/32 18/27/33
s 5
f 10/15/16 2/14/15 18/28/34
s 11
f 4/29/35 10/30/36 17/31/37
s 10
f 18/27/33 8/9/32 17/31/38
s 11
f 17/31/37 10/30/36 18/32/39
s 3
usemtl phong2SG
f 19/33/40 11/34/41 5/6/7
f 5/6/7 11/34/41 6/7/8
s 7
f 13/19/23 11/16/42 15/21/24
f 15/21/24 11/16/42 19/35/43
s 4
f 6/11/12 12/17/44 9/12/13
f 9/12/13 12/17/44 20/36/45
s 8
f 20/37/46 12/17/47 16/22/25
f 16/22/25 12/17/47 13/19/26
s 9
usemtl phong1SG
f 7/42/48 1/25/29 5/41/49
f 14/38/50 15/39/51 17/24/28
f 5/41/49 1/25/29 19/40/52
f 15/39/51 19/40/52 17/24/28
f 19/40/52 1/25/29 17/24/28
f 1/25/29 7/42/48 8/43/53
f 7/42/48 9/44/54 8/43/53
f 9/44/54 20/45/55 8/43/53
f 17/24/28 8/43/53 14/38/50
f 20/45/55 16/46/56 8/43/53
f 8/43/53 16/46/56 14/38/50
g default
v 0.979326 0.002250 -0.625887
v 0.979326 0.903416 -0.625887
v -0.979202 0.002250 -0.625887
v -0.979202 0.903416 -0.625887
v -0.979202 0.002250 -0.685495
v -0.979202 0.903416 -0.685495
v 0.979326 0.002250 -0.685495
v 0.979326 0.903416 -0.685495
v 0.898152 0.541681 0.576253
v 0.898152 0.601546 0.576253
v -0.898028 0.541681 0.576253
v -0.898028 0.601546 0.576253
v -0.898028 0.541681 -0.629285
v -0.898028 0.601546 -0.629285
v 0.898152 0.541681 -0.629285
v 0.898152 0.601546 -0.629285
v -0.977226 0.004921 0.641448
v -0.901341 0.004921 0.641448
v -0.977226 0.904921 0.641448
v -0.901341 0.904921 0.641448
v -0.977226 0.904921 -0.628104
v -0.901341 0.904921 -0.628104
v -0.977226 0.004921 -0.628104
v -0.901341 0.004921 -0.628104
v 0.897630 0.004921 0.641448
v 0.973515 0.004921 0.641448
v 0.897630 0.904921 0.641448
v 0.973515 0.904921 0.641448
v 0.897630 0.904921 -0.628104
v 0.973515 0.904921 -0.628104
v 0.897630 0.004921 -0.628104
v 0.973515 0.004921 -0.628104
v 0.898152 0.167270 0.576253
v 0.898152 0.227134 0.576253
v -0.898028 0.167270 0.576253
v -0.898028 0.227134 0.576253
v -0.898028 0.167270 -0.629285
v -0.898028 0.227134 -0.629285
v 0.898152 0.167270 -0.629285
v 0.898152 0.227134 -0.629285
v 1.042114 0.903345 0.711216
v 1.042114 0.979230 0.711216
v -1.036533 0.903345 0.711216
v -1.036533 0.979230 0.711216
v -1.036533 0.903345 -0.683520
v -1.036533 0.979230 -0.683520
v 1.042114 0.903345 -0.683520
v 1.042114 0.979230 -0.683520
vt 0.375000 0.000000
vt 0.625000 0.000000
vt 0.375000 0.250000
vt 0.625000 0.250000
vt 0.840778 0.127482
vt 0.840778 0.845525
vt 0.796853 0.126011
vt 0.789537 0.630899
vt 0.187430 0.121571
vt 0.180114 0.626459
vt 0.829464 0.119848
vt 0.829464 0.881018
vt 0.795214 0.119848
vt 0.795214 0.881018
vt 0.875000 0.000000
vt 0.875000 0.250000
vt 0.125000 0.000000
vt 0.125000 0.250000
vt 0.255618 0.925069
vt 0.257317 0.472242
vt 0.472683 0.922758
vt 0.474382 0.469931
vt 0.375000 0.250000
vt 0.625000 0.250000
vt 0.375000 0.500000
vt 0.625000 0.500000
vt 0.375000 0.750000
vt 0.625000 0.750000
vt 0.375000 1.000000
vt 0.625000 1.000000
vt 0.625000 0.000000
vt 0.875000 0.000000
vt 0.625000 0.250000
vt 0.875000 0.250000
vt 0.125000 0.000000
vt 0.375000 0.000000
vt 0.125000 0.250000
vt 0.375000 0.250000
vt 0.063504 0.210705
vt 0.166496 0.210705
vt 0.063504 0.604295
vt 0.166496 0.604295
vt 0.375000 0.250000
vt 0.625000 0.250000
vt 0.375000 0.500000
vt 0.625000 0.500000
vt 0.375000 0.750000
vt 0.625000 0.750000
vt 0.375000 1.000000
vt 0.625000 1.000000
vt 0.625000 0.000000
vt 0.875000 0.000000
vt 0.625000 0.250000
vt 0.875000 0.250000
vt 0.873087 0.127482
vt 0.873087 0.845525
vt 0.841979 0.129610
vt 0.153845 0.129610
vt 0.078098 0.262500
vt 0.146902 0.262500
vt 0.078098 0.512500
vt 0.146902 0.512500
vt 0.375000 0.250000
vt 0.625000 0.250000
vt 0.375000 0.500000
vt 0.625000 0.500000
vt 0.375000 0.750000
vt 0.625000 0.750000
vt 0.375000 1.000000
vt 0.625000 1.000000
vt 0.067023 0.122104
vt 0.796488 0.122104
vt 0.067023 0.882289
vt 0.796488 0.882289
vt 0.125000 0.000000
vt 0.375000 0.000000
vt 0.125000 0.250000
vt 0.375000 0.250000
vt 0.094573 0.272500
vt 0.245427 0.272500
vt 0.094573 0.522500
vt 0.245427 0.522500
vt 0.375000 0.250000
vt 0.625000 0.250000
vt 0.375000 0.500000
vt 0.625000 0.500000
vt 0.375000 0.750000
vt 0.625000 0.750000
vt 0.375000 1.000000
vt 0.625000 1.000000
vt 0.625000 0.000000
vt 0.875000 0.000000
vt 0.625000 0.250000
vt 0.875000 0.250000
vt 0.125000 0.000000
vt 0.375000 0.000000
vt 0.125000 0.250000
vt 0.375000 0.250000
vt 0.375000 0.000000
vt 0.625000 0.000000
vt 0.375000 0.250000
vt 0.625000 0.250000
vt 0.375000 0.500000
vt 0.625000 0.500000
vt 0.375000 0.750000
vt 0.625000 0.750000
vt 0.375000 1.000000
vt 0.625000 1.000000
vt 1.000000 -0.000000
vt 1.000000 1.000000
vt -0.000000 -0.000000
vt -0.000000 1.000000
vt 0.125000 0.000000
vt 0.125000 0.250000
vt 0.841979 0.846724
vt 0.153845 0.846724
vn 0.000000 0.000000 1.000000
vn 0.000000 0.000000 1.000000
vn 0.000000 0.000000 1.000000
vn 0.000000 0.000000 1.000000
vn -1.000000 0.000000 0.000000
vn -1.000000 0.000000 0.000000
vn -1.000000 0.000000 0.000000
vn -1.000000 0.000000 0.000000
vn 0.000000 0.000000 -1.000000
vn 0.000000 0.000000 -1.000000
vn 0.000000 0.000000 -1.000000
vn 0.000000 0.000000 -1.000000
vn 1.000000 0.000000 0.000000
vn 1.000000 0.000000 0.000000
vn 1.000000 0.000000 0.000000
vn 1.000000 0.000000 0.000000
vn 0.000000 1.000000 0.000000
vn 0.000000 1.000000 0.000000
vn 0.000000 1.000000 0.000000
vn 0.000000 1.000000 0.000000
vn 0.000000 -1.000000 0.000000
vn 0.000000 -1.000000 0.000000
vn 0.000000 -1.000000 0.000000
vn 0.000000 -1.000000 0.000000
vn 0.000000 0.000000 1.000000
vn 0.000000 0.000000 1.000000
vn 0.000000 0.000000 1.000000
vn 0.000000 0.000000 1.000000
vn -1.000000 0.000000 0.000000
vn -1.000000 0.000000 0.000000
vn -1.000000 0.000000 0.000000
vn -1.000000 0.000000 0.000000
vn 0.000000 0.000000 -1.000000
vn 0.000000 0.000000 -1.000000
vn 0.000000 0.000000 -1.000000
vn 0.000000 0.000000 -1.000000
vn 1.000000 0.000000 0.000000
vn 1.000000 0.000000 0.000000
vn 1.000000 0.000000 0.000000
vn 1.000000 0.000000 0.000000
vn 0.000000 1.000000 0.000000
vn 0.000000 1.000000 0.000000
vn 0.000000 1.000000 0.000000
vn 0.000000 1.000000 0.000000
vn 0.000000 -1.000000 0.000000
vn 0.000000 -1.000000 0.000000
vn 0.000000 -1.000000 0.000000
vn 0.000000 -1.000000 0.000000
vn 0.000000 0.000000 1.000000
vn 0.000000 0.000000 1.000000
vn 0.000000 0.000000 1.000000
vn 0.000000 0.000000 1.000000
vn 0.000000 1.000000 0.000000
vn 0.000000 1.000000 0.000000
vn 0.000000 1.000000 0.000000
vn 0.000000 1.000000 0.000000
vn 0.000000 0.000000 -1.000000
vn 0.000000 0.000000 -1.000000
vn 0.000000 0.000000 -1.000000
vn 0.000000 0.000000 -1.000000
vn 0.000000 -1.000000 0.000000
vn 0.000000 -1.000000 0.000000
vn 0.000000 -1.000000 0.000000
vn 0.000000 -1.000000 0.000000
vn 1.000000 0.000000 0.000000
vn 1.000000 0.000000 0.000000
vn 1.000000 0.000000 0.000000
vn 1.000000 0.000000 0.000000
vn -1.000000 0.000000 0.000000
vn -1.000000 0.000000 0.000000
vn -1.000000 0.000000 0.000000
vn -1.000000 0.000000 0.000000
vn 0.000000 0.000000 1.000000
vn 0.000000 0.000000 1.000000
vn 0.000000 0.000000 1.000000
vn 0.000000 0.000000 1.000000
vn 0.000000 1.000000 0.000000
vn 0.000000 1.000000 0.000000
vn 0.000000 1.000000 0.000000
vn 0.000000 1.000000 0.000000
vn 0.000000 0.000000 -1.000000
vn 0.000000 0.000000 -1.000000
vn 0.000000 0.000000 -1.000000
vn 0.000000 0.000000 -1.000000
vn 0.000000 -1.000000 0.000000
vn 0.000000 -1.000000 0.000000
vn 0.000000 -1.000000 0.000000
vn 0.000000 -1.000000 0.000000
vn 1.000000 0.000000 0.000000
vn 1.000000 0.000000 0.000000
vn 1.000000 0.000000 0.000000
vn 1.000000 0.000000 0.000000
vn -1.000000 0.000000 0.000000
vn -1.000000 0.000000 0.000000
vn -1.000000 0.000000 0.000000
vn -1.000000 0.000000 0.000000
vn 0.000000 0.000000 1.000000
vn 0.000000 0.000000 1.000000
vn 0.000000 0.000000 1.000000
vn 0.000000 0.000000 1.000000
vn -1.000000 0.000000 0.000000
vn -1.000000 0.000000 0.000000
vn -1.000000 0.000000 0.000000
vn -1.000000 0.000000 0.000000
vn 0.000000 0.000000 -1.000000
vn 0.000000 0.000000 -1.000000
vn 0.000000 0.000000 -1.000000
vn 0.000000 0.000000 -1.000000
vn 1.000000 0.000000 0.000000
vn 1.000000 0.000000 0.000000
vn 1.000000 0.000000 0.000000
vn 1.000000 0.000000 0.000000
vn 0.000000 1.000000 0.000000
vn 0.000000 1.000000 0.000000
vn 0.000000 1.000000 0.000000
vn 0.000000 1.000000 0.000000
vn 0.000000 -1.000000 0.000000
vn 0.000000 -1.000000 0.000000
vn 0.000000 -1.000000 0.000000
vn 0.000000 -1.000000 0.000000
vn 0.000000 0.000000 1.000000
vn 0.000000 0.000000 1.000000
vn 0.000000 0.000000 1.000000
vn 0.000000 0.000000 1.000000
vn -1.000000 0.000000 0.000000
vn -1.000000 0.000000 0.000000
vn -1.000000 0.000000 0.000000
vn -1.000000 0.000000 0.000000
vn 0.000000 0.000000 -1.000000
vn 0.000000 0.000000 -1.000000
vn 0.000000 0.000000 -1.000000
vn 0.000000 0.000000 -1.000000
vn 1.000000 0.000000 0.000000
vn 1.000000 0.000000 0.000000
vn 1.000000 0.000000 0.000000
vn 1.000000 0.000000 0.000000
vn 0.000000 1.000000 0.000000
vn 0.000000 1.000000 0.000000
vn 0.000000 1.000000 0.000000
vn 0.000000 1.000000 0.000000
vn 0.000000 -1.000000 0.000000
vn 0.000000 -1.000000 0.000000
vn 0.000000 -1.000000 0.000000
vn 0.000000 -1.000000 0.000000
s 1
g polySurface16
usemtl phong1SG
f 21/47/57 22/48/58 23/49/59
f 23/49/59 22/48/58 24/50/60
s 2
f 23/51/61 24/52/62 25/101/63
f 25/101/63 24/52/62 26/102/64
s 3
f 25/53/65 26/54/66 27/55/67
f 27/55/67 26/54/66 28/56/68
s 4
f 27/57/69 28/58/70 21/59/71
f 21/59/71 28/58/70 22/60/72
s 5
f 22/48/73 28/61/74 24/50/75
f 24/50/75 28/61/74 26/62/76
s 6
f 27/63/77 21/47/78 25/64/79
f 25/64/79 21/47/78 23/49/80
s 7
f 29/65/81 30/66/82 31/67/83
f 31/67/83 30/66/82 32/68/84
s 8
f 31/69/85 32/70/86 33/71/87
f 33/71/87 32/70/86 34/72/88
s 9
f 33/71/89 34/72/90 35/73/91
f 35/73/91 34/72/90 36/74/92
s 10
f 35/73/93 36/74/94 29/75/95
f 29/75/95 36/74/94 30/76/96
s 11
f 30/77/97 36/78/98 32/79/99
f 32/79/99 36/78/98 34/80/100
s 12
f 35/81/101 29/82/102 33/83/103
f 33/83/103 29/82/102 31/84/104
s 13
f 37/85/105 38/86/106 39/87/107
f 39/87/107 38/86/106 40/88/108
s 14
f 39/89/109 40/90/110 41/91/111
f 41/91/111 40/90/110 42/92/112
s 15
f 41/91/113 42/92/114 43/93/115
f 43/93/115 42/92/114 44/94/116
s 16
f 43/93/117 44/94/118 37/95/119
f 37/95/119 44/94/118 38/96/120
s 17
f 38/97/121 44/98/122 40/99/123
f 40/99/123 44/98/122 42/100/124
s 18
f 43/103/125 37/104/126 41/161/127
f 41/161/127 37/104/126 39/162/128
s 19
f 45/105/129 46/106/130 47/107/131
f 47/107/131 46/106/130 48/108/132
s 20
f 47/109/133 48/110/134 49/111/135
f 49/111/135 48/110/134 50/112/136
s 21
f 49/111/137 50/112/138 51/113/139
f 51/113/139 50/112/138 52/114/140
s 22
f 51/113/141 52/114/142 45/115/143
f 45/115/143 52/114/142 46/116/144
s 23
f 46/117/145 52/118/146 48/119/147
f 48/119/147 52/118/146 50/120/148
s 24
f 51/121/149 45/122/150 49/123/151
f 49/123/151 45/122/150 47/124/152
s 25
f 53/125/153 54/126/154 55/127/155
f 55/127/155 54/126/154 56/128/156
s 26
f 55/129/157 56/130/158 57/131/159
f 57/131/159 56/130/158 58/132/160
s 27
f 57/131/161 58/132/162 59/133/163
f 59/133/163 58/132/162 60/134/164
s 28
f 59/133/165 60/134/166 53/135/167
f 53/135/167 60/134/166 54/136/168
s 29
f 54/137/169 60/138/170 56/139/171
f 56/139/171 60/138/170 58/140/172
s 30
f 59/141/173 53/142/174 57/143/175
f 57/143/175 53/142/174 55/144/176
s 31
f 61/145/177 62/146/178 63/147/179
f 63/147/179 62/146/178 64/148/180
s 32
f 63/147/181 64/148/182 65/149/183
f 65/149/183 64/148/182 66/150/184
s 33
f 65/149/185 66/150/186 67/151/187
f 67/151/187 66/150/186 68/152/188
s 34
f 67/151/189 68/152/190 61/153/191
f 61/153/191 68/152/190 62/154/192
s 35
f 62/155/193 68/156/194 64/157/195
f 64/157/195 68/156/194 66/158/196
s 36
f 67/159/197 61/145/198 65/160/199
f 65/160/199 61/145/198 63/147/200
