# This file uses centimeters as units for non-parametric coordinates.

mtllib estructura.mtl
g default
v 0.678696 0.033338 -0.000171
v 0.678696 0.364184 -0.000171
v 0.678696 0.364184 -0.559388
v 0.678696 0.033338 -0.559388
v 0.072225 0.364184 -0.559388
v 0.072225 0.033338 -0.559388
v -0.001982 0.002263 -0.000171
v -0.001982 0.002263 -0.582970
v 0.889321 0.002263 -0.582970
v 0.889321 0.002263 -0.000171
v 0.072225 0.033338 -0.000171
v -0.001982 0.419829 -0.582970
v 0.889321 0.419829 -0.582970
v 0.072225 0.364184 -0.000171
v -0.001982 0.393756 -0.000171
v 0.889321 0.393756 -0.000171
v -0.001982 0.414614 0.015223
v -0.001982 0.419829 0.010009
v 0.889321 0.414614 0.015223
v 0.889321 0.419829 0.010009
v 0.889321 0.396834 0.015223
v 0.889321 0.393756 0.012144
v -0.001982 0.396834 0.015223
v -0.001982 0.393756 0.012144
v 0.728288 0.393756 -0.000171
v 0.728288 0.393756 0.012144
v 0.728288 0.396834 0.015223
v 0.728288 0.414614 0.015223
v 0.728288 0.419829 0.010009
v 0.728288 0.419829 -0.582970
v 0.728288 0.002263 -0.582970
v 0.728288 0.002263 -0.000171
v 0.728288 0.026021 -0.000171
v 0.672750 -0.020820 0.033659
v 0.814471 -0.020820 0.033659
v 0.814471 0.002074 0.033659
v 0.672750 0.002074 0.033659
v 0.672750 -0.047941 -0.599002
v 0.672750 0.004084 -0.599002
v 0.814471 0.004084 -0.599002
v 0.814471 -0.047941 -0.599002
v 0.661441 -0.079685 -0.625809
v 0.661441 -0.079685 -0.599002
v 0.661441 0.041749 -0.599002
v 0.661441 0.041749 -0.625809
v 0.841598 0.041749 -0.599002
v 0.841598 0.041749 -0.625809
v 0.841598 -0.079685 -0.625809
v 0.841598 -0.079685 -0.599002
v 0.072368 -0.020820 0.033659
v 0.214090 -0.020820 0.033659
v 0.214090 0.002074 0.033659
v 0.072368 0.002074 0.033659
v 0.072368 -0.047941 -0.599002
v 0.072368 0.004084 -0.599002
v 0.214090 0.004084 -0.599002
v 0.214090 -0.047941 -0.599002
v 0.061060 -0.079685 -0.625809
v 0.061060 -0.079685 -0.599002
v 0.061060 0.041749 -0.599002
v 0.061060 0.041749 -0.625809
v 0.241217 0.041749 -0.599002
v 0.241217 0.041749 -0.625809
v 0.241217 -0.079685 -0.625809
v 0.241217 -0.079685 -0.599002
vt 0.608007 0.750000
vt 0.608007 0.500000
vt 0.375000 0.750000
vt 0.375000 0.500000
vt 0.125000 0.000000
vt 0.125000 0.250000
vt 0.375000 0.000000
vt 0.375000 0.250000
vt 1.000000 -0.000000
vt -0.000000 0.000000
vt 1.000000 0.819329
vt -0.000000 0.819329
vt 0.608007 1.000000
vt 0.375000 1.000000
vt -0.000000 -0.000000
vt 0.991284 -0.000000
vt -0.000000 0.819329
vt 0.991284 0.819329
vt 0.608007 0.250000
vt 0.608007 0.000000
vt 0.375000 0.454832
vt 0.380147 0.454832
vt 0.375000 0.250000
vt 0.380147 0.250000
vt 0.625000 0.236233
vt 0.829832 0.236234
vt 0.625000 0.246878
vt 0.829832 0.246878
vt 0.354186 0.232295
vt 0.170168 0.250000
vt 0.184078 0.232295
vt 0.170168 0.029835
vt 0.184078 0.034215
vt 0.375000 0.015610
vt 0.354186 0.034215
vt 0.170168 0.015610
vt 0.974266 0.000000
vt -0.000000 1.000000
vt 0.974266 0.937560
vt 0.991284 1.000000
vt 1.000000 0.987513
vt 1.000000 0.944932
vt 0.994854 0.937560
vt -0.000000 1.000000
vt 0.991284 1.000000
vt -0.000000 0.000000
vt 0.974266 0.000000
vt 0.974266 0.937560
vt 1.000000 0.987513
vt 1.000000 0.944932
vt 0.994854 0.937560
vt 0.819329 1.000000
vt 0.819329 0.000000
vt 1.000000 -0.000000
vt 1.000000 0.809098
vt 0.381434 0.454832
vt 0.381434 0.250000
vt 0.380147 0.500000
vt 0.375000 0.500000
vt 0.381434 0.500000
vt 0.875000 0.246878
vt 0.875000 0.236234
vt 1.000000 0.000000
vt 1.000000 1.000000
vt 1.000000 1.000000
vt -0.000000 1.000000
vt 0.000000 0.060688
vt 0.000000 -0.000000
vt 1.000000 -0.000000
vt 0.000000 1.000000
vt 1.000000 1.000000
vt 0.625000 0.000000
vt 0.875000 0.000000
vt 0.875000 0.250000
vt 0.625000 0.250000
vt 0.375946 0.000000
vt 0.375946 0.250000
vt 0.625000 0.500000
vt 0.375946 0.500000
vt 0.375946 0.750000
vt 0.625000 0.750000
vt 0.625000 1.000000
vt 0.375946 1.000000
vt 0.375000 0.000000
vt 0.625000 0.000000
vt 0.625000 0.250000
vt 0.375000 0.250000
vt 0.625000 0.500000
vt 0.375000 0.500000
vt 0.125000 0.000000
vt 0.125000 0.250000
vt 0.375000 0.750000
vt 0.625000 0.750000
vt 0.625000 1.000000
vt 0.375000 1.000000
vt 0.875000 0.000000
vt 0.837356 0.065351
vt 0.640692 0.065351
vt 0.640692 0.172457
vt 0.837356 0.172457
vt 0.875000 0.250000
vt 0.625000 0.000000
vt 0.875000 0.000000
vt 0.875000 0.250000
vt 0.625000 0.250000
vt 0.375946 0.000000
vt 0.375946 0.250000
vt 0.625000 0.500000
vt 0.375946 0.500000
vt 0.375946 0.750000
vt 0.625000 0.750000
vt 0.625000 1.000000
vt 0.375946 1.000000
vt 0.375000 0.000000
vt 0.625000 0.000000
vt 0.625000 0.250000
vt 0.375000 0.250000
vt 0.625000 0.500000
vt 0.375000 0.500000
vt 0.125000 0.000000
vt 0.125000 0.250000
vt 0.375000 0.750000
vt 0.625000 0.750000
vt 0.625000 1.000000
vt 0.375000 1.000000
vt 0.875000 0.000000
vt 0.837356 0.065351
vt 0.640692 0.065351
vt 0.640692 0.172457
vt 0.837356 0.172457
vt 0.875000 0.250000
vn -1.000000 0.000000 0.000000
vn -1.000000 0.000000 0.000000
vn -1.000000 0.000000 0.000000
vn -1.000000 0.000000 0.000000
vn 0.000000 0.000000 1.000000
vn 0.000000 0.000000 1.000000
vn 0.000000 0.000000 1.000000
vn 0.000000 0.000000 1.000000
vn 0.000000 -1.000000 0.000000
vn 0.000000 -1.000000 0.000000
vn 0.000000 -1.000000 0.000000
vn 0.000000 -1.000000 0.000000
vn 0.000000 1.000000 0.000000
vn 0.000000 1.000000 0.000000
vn 0.000000 1.000000 0.000000
vn 0.000000 1.000000 0.000000
vn 0.000000 1.000000 0.000000
vn 0.000000 1.000000 0.000000
vn 0.000000 1.000000 0.000000
vn 0.000000 1.000000 0.000000
vn 0.000000 -1.000000 0.000000
vn 0.000000 -1.000000 0.000000
vn 0.000000 -1.000000 0.000000
vn 0.000000 -1.000000 0.000000
vn 1.000000 0.000000 0.000000
vn 1.000000 0.000000 0.000000
vn 1.000000 0.000000 0.000000
vn 1.000000 0.000000 0.000000
vn 0.000000 -1.000000 0.000000
vn 0.000000 -1.000000 0.000000
vn 0.000000 -1.000000 0.000000
vn 0.000000 -1.000000 0.000000
vn 0.000000 0.000000 1.000000
vn -0.000000 -0.000002 1.000000
vn -0.000000 -0.000000 1.000000
vn 0.000000 -0.000002 1.000000
vn -0.000000 0.000000 1.000000
vn -0.000000 0.000000 1.000000
vn -0.000000 0.000000 1.000000
vn -0.000000 0.000000 1.000000
vn 0.000000 -0.000000 1.000000
vn -0.000000 -0.000000 1.000000
vn -0.000000 0.000000 1.000000
vn 0.000000 0.000000 1.000000
vn -0.000000 -0.000001 1.000000
vn -1.000000 0.000000 0.000000
vn -1.000000 0.000000 0.000000
vn -1.000000 0.000000 0.000000
vn -1.000000 -0.000000 0.000000
vn -1.000000 0.000000 0.000000
vn -1.000000 0.000000 0.000000
vn -1.000000 -0.000000 0.000000
vn -1.000000 -0.000000 0.000000
vn 1.000000 0.000000 0.000000
vn 1.000000 0.000000 0.000000
vn 1.000000 0.000000 0.000000
vn 1.000000 0.000000 0.000000
vn 1.000000 0.000000 0.000000
vn 1.000000 0.000000 0.000000
vn 1.000000 0.000000 0.000000
vn 1.000000 0.000000 0.000000
vn 0.000000 0.000000 -1.000000
vn 0.000000 0.000000 -1.000000
vn 0.000000 0.000000 -1.000000
vn 0.000000 0.000000 -1.000000
vn 0.000000 0.707095 0.707118
vn -0.000000 0.707095 0.707118
vn -0.000000 0.707098 0.707116
vn -0.000000 0.707098 0.707116
vn -0.000000 -0.707111 0.707103
vn -0.000000 -0.707111 0.707103
vn -0.000000 -0.707114 0.707100
vn 0.000000 -0.707114 0.707100
vn 0.000000 -1.000000 0.000000
vn 0.000000 -1.000000 0.000000
vn 0.000000 -0.707114 0.707099
vn 0.000000 -0.707114 0.707099
vn 0.000000 -0.000000 1.000000
vn 0.000000 0.000000 1.000000
vn 0.000000 0.707092 0.707121
vn 0.000000 0.707092 0.707122
vn 0.000000 1.000000 0.000000
vn 0.000000 1.000000 0.000000
vn 0.000000 0.000000 -1.000000
vn 0.000000 0.000000 -1.000000
vn 0.000000 -1.000000 0.000000
vn 0.000000 -1.000000 0.000000
vn 0.000000 -0.000000 1.000000
vn 0.000000 0.000000 1.000000
vn 0.000000 0.000000 1.000000
vn 0.000000 0.000000 1.000000
vn 0.000000 0.000000 1.000000
vn 0.000000 0.000000 1.000000
vn -1.000000 0.000000 0.000000
vn -1.000000 0.000000 0.000000
vn -1.000000 0.000000 0.000000
vn -1.000000 0.000000 0.000000
vn 0.000000 0.999995 0.003176
vn 0.000000 0.999995 0.003176
vn 0.000000 0.999995 0.003176
vn 0.000000 0.999995 0.003176
vn 0.000000 -0.999083 0.042829
vn 0.000000 -0.999083 0.042829
vn 0.000000 -0.999083 0.042829
vn 0.000000 -0.999083 0.042829
vn 1.000000 0.000000 0.000000
vn 1.000000 0.000000 0.000000
vn 1.000000 0.000000 0.000000
vn 1.000000 0.000000 0.000000
vn -1.000000 0.000000 0.000000
vn -1.000000 0.000000 0.000000
vn -1.000000 0.000000 0.000000
vn -1.000000 0.000000 0.000000
vn 0.000000 1.000000 0.000000
vn 0.000000 1.000000 0.000000
vn 0.000000 1.000000 0.000000
vn 0.000000 1.000000 0.000000
vn 0.000000 0.000000 -1.000000
vn 0.000000 0.000000 -1.000000
vn 0.000000 0.000000 -1.000000
vn 0.000000 0.000000 -1.000000
vn 0.000000 -1.000000 0.000000
vn 0.000000 -1.000000 0.000000
vn 0.000000 -1.000000 0.000000
vn 0.000000 -1.000000 0.000000
vn 1.000000 0.000000 0.000000
vn 1.000000 0.000000 0.000000
vn 1.000000 0.000000 0.000000
vn 1.000000 0.000000 0.000000
vn 0.000000 0.000000 1.000000
vn -0.000000 0.000000 1.000000
vn -0.000000 0.000000 1.000000
vn 0.000000 0.000000 1.000000
vn -0.000000 0.000000 1.000000
vn -0.000000 0.000000 1.000000
vn -0.000000 0.000000 1.000000
vn -0.000000 0.000000 1.000000
vn 0.000000 0.000000 1.000000
vn 0.000000 0.000000 1.000000
vn 0.000000 0.000000 1.000000
vn 0.000000 0.000000 1.000000
vn -1.000000 0.000000 0.000000
vn -1.000000 0.000000 0.000000
vn -1.000000 0.000000 0.000000
vn -1.000000 0.000000 0.000000
vn 0.000000 0.999995 0.003176
vn 0.000000 0.999995 0.003176
vn 0.000000 0.999995 0.003176
vn 0.000000 0.999995 0.003176
vn 0.000000 -0.999083 0.042829
vn 0.000000 -0.999083 0.042829
vn 0.000000 -0.999083 0.042829
vn 0.000000 -0.999083 0.042829
vn 1.000000 0.000000 0.000000
vn 1.000000 0.000000 0.000000
vn 1.000000 0.000000 0.000000
vn 1.000000 0.000000 0.000000
vn -1.000000 0.000000 0.000000
vn -1.000000 0.000000 0.000000
vn -1.000000 0.000000 0.000000
vn -1.000000 0.000000 0.000000
vn 0.000000 1.000000 0.000000
vn 0.000000 1.000000 0.000000
vn 0.000000 1.000000 0.000000
vn 0.000000 1.000000 0.000000
vn 0.000000 0.000000 -1.000000
vn 0.000000 0.000000 -1.000000
vn 0.000000 0.000000 -1.000000
vn 0.000000 0.000000 -1.000000
vn 0.000000 -1.000000 0.000000
vn 0.000000 -1.000000 0.000000
vn 0.000000 -1.000000 0.000000
vn 0.000000 -1.000000 0.000000
vn 1.000000 0.000000 0.000000
vn 1.000000 0.000000 0.000000
vn 1.000000 0.000000 0.000000
vn 1.000000 0.000000 0.000000
vn 0.000000 0.000000 1.000000
vn -0.000000 0.000000 1.000000
vn -0.000000 0.000000 1.000000
vn 0.000000 0.000000 1.000000
vn -0.000000 0.000000 1.000000
vn -0.000000 0.000000 1.000000
vn -0.000000 0.000000 1.000000
vn -0.000000 0.000000 1.000000
s 1
g polySurface18
usemtl phong4SG
f 1/1/1 2/2/2 4/3/3
f 4/3/3 2/2/2 3/4/4
s 2
f 4/5/5 3/6/6 6/7/7
f 6/7/7 3/6/6 5/8/8
s 3
f 7/9/9 8/10/10 32/11/11
f 32/11/11 8/10/10 31/12/12
s 4
f 11/13/13 1/1/14 6/14/15
f 6/14/15 1/1/14 4/3/16
s 5
f 12/15/17 18/16/18 30/17/19
f 30/17/19 18/16/18 29/18/20
s 6
f 2/2/21 14/19/22 3/4/23
f 3/4/23 14/19/22 5/8/24
s 7
f 14/19/25 11/20/26 5/8/27
f 5/8/27 11/20/26 6/7/28
s 8
usemtl phong2SG
f 25/21/29 26/22/30 15/23/31
f 15/23/31 26/22/30 24/24/32
s 9
f 23/25/33 27/26/34 17/27/35
f 17/27/35 27/26/34 28/28/36
s 10
usemtl phong4SG
f 15/23/37 14/29/38 25/30/39
f 14/29/38 2/31/40 25/30/39
f 25/30/39 2/31/40 33/32/41
f 2/31/40 1/33/42 33/32/41
f 15/23/37 7/34/43 14/29/38
f 14/29/38 7/34/43 11/35/44
f 7/34/43 32/36/45 11/35/44
f 33/32/41 1/33/42 32/36/45
f 32/36/45 1/33/42 11/35/44
s 11
usemtl phong1SG
f 8/10/46 7/37/47 12/38/48
f 7/37/47 15/39/49 12/38/48
f 12/38/48 15/39/49 18/40/50
f 18/40/50 15/39/49 17/41/51
f 17/41/51 15/39/49 23/42/52
f 15/39/49 24/43/53 23/42/52
s 12
f 13/44/54 20/45/55 9/46/56
f 10/47/57 9/46/56 16/48/58
f 20/45/55 19/49/59 9/46/56
f 9/46/56 19/49/59 16/48/58
f 19/49/59 21/50/60 16/48/58
f 21/50/60 22/51/61 16/48/58
s 14
usemtl phong4SG
f 30/52/62 31/53/63 12/38/64
f 12/38/64 31/53/63 8/10/65
s 15
usemtl phong2SG
f 18/16/66 17/54/67 29/18/68
f 29/18/68 17/54/67 28/55/69
s 16
f 26/22/70 27/56/71 24/24/72
f 24/24/72 27/56/71 23/57/73
s 8
f 22/58/74 26/22/30 16/59/75
f 16/59/75 26/22/30 25/21/29
s 16
f 22/58/76 21/60/77 26/22/70
f 26/22/70 21/60/77 27/56/71
s 9
f 28/28/36 27/26/34 19/61/78
f 19/61/78 27/26/34 21/62/79
s 15
f 29/18/68 28/55/69 20/45/80
f 20/45/80 28/55/69 19/49/81
s 5
usemtl phong4SG
f 30/17/19 29/18/20 13/44/82
f 13/44/82 29/18/20 20/45/83
s 14
f 9/63/84 31/53/63 13/64/85
f 13/64/85 31/53/63 30/52/62
s 3
f 32/11/11 31/12/12 10/65/86
f 10/65/86 31/12/12 9/66/87
s 10
usemtl phong3SG
f 33/67/41 32/68/45 10/69/88
f 25/70/39 33/67/41 16/71/89
f 16/71/89 33/67/41 10/69/88
s off
usemtl phong2SG
f 34/72/90 35/73/91 36/74/92 37/75/93
f 38/76/94 34/72/95 37/75/96 39/77/97
f 39/77/98 37/75/99 36/78/100 40/79/101
f 41/80/102 35/81/103 34/82/104 38/83/105
f 40/79/106 36/78/107 35/81/108 41/80/109
f 42/84/110 43/85/111 44/86/112 45/87/113
f 45/87/114 44/86/115 46/88/116 47/89/117
f 48/90/118 42/84/119 45/87/120 47/91/121
f 48/92/122 49/93/123 43/94/124 42/95/125
f 47/89/126 46/88/127 49/93/128 48/92/129
s 17
f 43/85/130 49/96/131 41/97/132 38/98/133 39/99/134 44/86/135
f 39/99/134 40/100/136 41/97/132 49/96/131 46/101/137 44/86/135
s off
usemtl pasted__phong2SG
f 50/102/138 51/103/139 52/104/140 53/105/141
f 54/106/142 50/102/143 53/105/144 55/107/145
f 55/107/146 53/105/147 52/108/148 56/109/149
f 57/110/150 51/111/151 50/112/152 54/113/153
f 56/109/154 52/108/155 51/111/156 57/110/157
f 58/114/158 59/115/159 60/116/160 61/117/161
f 61/117/162 60/116/163 62/118/164 63/119/165
f 64/120/166 58/114/167 61/117/168 63/121/169
f 64/122/170 65/123/171 59/124/172 58/125/173
f 63/119/174 62/118/175 65/123/176 64/122/177
s 18
f 59/115/178 65/126/179 57/127/180 54/128/181 55/129/182 60/116/183
f 55/129/182 56/130/184 57/127/180 65/126/179 62/131/185 60/116/183
